<svg xmlns="http://www.w3.org/2000/svg" viewBox="0 0 838.09 573.19"><defs><style>.cls-1,.cls-2{stroke:#231f20;stroke-miterlimit:10;}.cls-2{fill:#231f20;}</style></defs><g id="Layer_2" data-name="Layer 2"><path class="cls-1" d="M632.08,546.22" transform="translate(-58.8 -233)"/><path class="cls-2" d="M1041.91,733.63" transform="translate(-58.8 -233)"/><path d="M58.8,532.6s341,68.67,703-191.38c0,0-138.86,157.81-260.11,198.86,0,0,78.93,583-411.19,3.88,0,0,276.24,267.61,307.3,174.81,21.72-64.88,5.53-158.31,5.53-158.31S204.42,592.31,58.8,532.6Z" transform="translate(-58.8 -233)"/></g><g id="Layer_3" data-name="Layer 3"><path class="cls-1" d="M849.69,316.57S648.19,544,549.71,563.36C549.71,563.36,690.46,1052.24,849.69,316.57Z" transform="translate(-58.8 -233)"/></g><g id="Layer_4" data-name="Layer 4"><path class="cls-2" d="M815.26,150.63" transform="translate(-58.8 -233)"/><path d="M541,703.41c33.09-2.13,83.4,77.15,131.88,74,81.23-5.22,176.77-119.7,224-544.44,0,0-26.37,584.74-229.33,573-66.62-3.85-86.52-73.87-129.49-75.35C510.62,729.72,473,794,473,794S499.56,706.07,541,703.41Z" transform="translate(-58.8 -233)"/></g></svg>