<svg xmlns="http://www.w3.org/2000/svg" viewBox="0 0 3675.87 573.19"><defs><style>.cls-1,.cls-2{stroke:#231f20;stroke-miterlimit:10;}.cls-2{fill:#231f20;}</style></defs><g id="Layer_2" data-name="Layer 2"><path class="cls-1" d="M632.08,546.22" transform="translate(-58.8 -233)"/><path class="cls-2" d="M1041.91,733.63" transform="translate(-58.8 -233)"/><path d="M58.8,532.6s341,68.67,703-191.38c0,0-138.86,157.81-260.11,198.86,0,0,78.93,583-411.19,3.88,0,0,276.24,267.61,307.3,174.81,21.72-64.88,5.53-158.31,5.53-158.31S204.42,592.31,58.8,532.6Z" transform="translate(-58.8 -233)"/></g><g id="Layer_3" data-name="Layer 3"><path class="cls-1" d="M849.69,316.57S648.19,544,549.71,563.36C549.71,563.36,690.46,1052.24,849.69,316.57Z" transform="translate(-58.8 -233)"/></g><g id="Layer_4" data-name="Layer 4"><path class="cls-2" d="M815.26,150.63" transform="translate(-58.8 -233)"/><path d="M541,703.41c33.09-2.13,83.4,77.15,131.88,74,81.23-5.22,176.77-119.7,224-544.44,0,0-26.37,584.74-229.33,573-66.62-3.85-86.52-73.87-129.49-75.35C510.62,729.72,473,794,473,794S499.56,706.07,541,703.41Z" transform="translate(-58.8 -233)"/></g><g id="Layer_5" data-name="Layer 5"><path d="M1015.94,653.6a54.11,54.11,0,0,1-20.75-18.5l11-12.5q14.5,21.51,37.75,21.5,32.5,0,32.5-38.5v-106h-64v-16h82.25V604.85q0,27.51-12.87,41.38t-38.13,13.87A60.13,60.13,0,0,1,1015.94,653.6Z" transform="translate(-58.8 -233)"/><path d="M1179.57,648.48a84.83,84.83,0,0,1-33-31.88q-11.88-20.25-11.88-45.5t11.88-45.5a84.81,84.81,0,0,1,33-31.87q21.12-11.62,47.12-11.63t46.88,11.5a85.13,85.13,0,0,1,32.87,31.88q12,20.37,12,45.62t-12,45.63a85.1,85.1,0,0,1-32.87,31.87q-20.88,11.5-46.88,11.5T1179.57,648.48Zm84.62-14.25a67.83,67.83,0,0,0,26.25-26,77.29,77.29,0,0,0,0-74.25,67.76,67.76,0,0,0-26.25-26,79.89,79.89,0,0,0-75.12,0,68.41,68.41,0,0,0-26.5,26,76.38,76.38,0,0,0,0,74.25,68.47,68.47,0,0,0,26.5,26,80,80,0,0,0,75.12,0Z" transform="translate(-58.8 -233)"/><path d="M1506.19,483.6v175h-15.25l-112.5-142v142h-18.5v-175h15.25l112.75,142v-142Z" transform="translate(-58.8 -233)"/><path d="M1672.94,611.85h-97.5l-21,46.75h-19.25l80-175h18.25l80,175h-19.5Zm-6.75-15-42-94-42,94Z" transform="translate(-58.8 -233)"/><path d="M1767.69,499.6h-61.5v-16h141.5v16h-61.5v159h-18.5Z" transform="translate(-58.8 -233)"/><path d="M2023.44,483.6v175h-18.25V577.85h-109.5V658.6h-18.5v-175h18.5v78h109.5v-78Z" transform="translate(-58.8 -233)"/><path d="M2190.18,611.85h-97.5l-21,46.75h-19.25l80-175h18.25l80,175h-19.5Zm-6.75-15-42-94-42,94Z" transform="translate(-58.8 -233)"/><path d="M2405.93,483.6v175h-15.25l-112.5-142v142h-18.5v-175h15.25l112.75,142v-142Z" transform="translate(-58.8 -233)"/><path d="M2674.68,483.6v175h-15.25l-112.5-142v142h-18.5v-175h15.25l112.75,142v-142Z" transform="translate(-58.8 -233)"/><path d="M2855.42,642.6v16H2731.67v-175h120v16h-101.5v62.25h90.5V577.6h-90.5v65Z" transform="translate(-58.8 -233)"/><path d="M3136.67,483.6l-59,175h-19.5l-51.25-149.25-51.5,149.25h-19.25l-59-175h19l50.5,150.5,52.25-150.5h17.25l51.5,151.25,51.25-151.25Z" transform="translate(-58.8 -233)"/><path d="M3352.17,483.6v175h-17.75v-140l-68.75,117.75h-8.75l-68.75-117V658.6h-17.75v-175h15.25l76,129.75,75.25-129.75Z" transform="translate(-58.8 -233)"/><path d="M3518.92,611.85h-97.5l-21,46.75h-19.25l80-175h18.25l80,175h-19.5Zm-6.75-15-42-94-42,94Z" transform="translate(-58.8 -233)"/><path d="M3734.67,483.6v175h-15.25l-112.5-142v142h-18.5v-175h15.25l112.75,142v-142Z" transform="translate(-58.8 -233)"/></g></svg>