<svg id="Layer_1" data-name="Layer 1" xmlns="http://www.w3.org/2000/svg" viewBox="0 0 694.21 1061.27"><path d="M0,723c1.79-.38,2.39-2.07,3.42-3.23,1.87-2.1,2.93-4.93,5.69-6.25a1.4,1.4,0,0,0,.58-.89c.61-2.52,2.6-3.94,4.25-5.68S17.31,703,19,701a12.4,12.4,0,0,1,1.66-1.87c2.75-2.19,4.87-4.95,7.14-7.59a12.71,12.71,0,0,1,2.58-2.5c1.23-.79,2.64-1.3,2.11-3.51l.62.28.82,1.38c.3-.11.6-.16.6-.23.25-3.5,3.6-4.91,5.12-7.57.52-.89,2-1.16,2.77-2,3-3.2,5.79-6.64,8.92-9.72a63.26,63.26,0,0,1,7.51-6c2.25-1.62,3.49-4,5.06-6.13.84-1.15.91-2.86,2.81-3.05.07,0-.1-1,.11-1.34s1-.78,1.29-1.27a16.89,16.89,0,0,1,5.34-5.2,29.21,29.21,0,0,0,3.11-2.32c3.31-2.64,7.17-4.27,11-6,4.2-1.86,7.49-4.46,9.6-8.74a23.5,23.5,0,0,1,4.93-5.93,92.41,92.41,0,0,1,9.07-8c2.1-1.55,4.71-2.46,7.14-3.54a11.3,11.3,0,0,1,3-.69c3.41-.5,4.84-3,5.4-5.88a22,22,0,0,1,3.35-8.43,1.37,1.37,0,0,0,.26-.49c.87-5.08,5.43-6.28,9.07-8.15,1.83-1,4.37-.89,6.55-.72,4.58.33,8.46-1.61,12.48-3.2a19.81,19.81,0,0,1,2.88-1,10.68,10.68,0,0,0,6.49-3.85,41.5,41.5,0,0,1,10.4-9.46,30,30,0,0,1,4.79-2.17c3.09-1.19,6.32-2.09,9.29-3.53,2.11-1,3.77-3,5.84-4.1,3.07-1.7,5.14-4.48,7.77-6.65a74.47,74.47,0,0,1,13.65-8.5c1.23-.62,2.46-1.28,3.71-1.87,2.33-1.11,4.88-1.81,7.17-2.87,3.6-1.67,7.58-1.62,11.13-3.18a2.82,2.82,0,0,1,.82-.14,68.21,68.21,0,0,0,12.38-2.55c2.54-.79,4.89-1.6,6.75-3.61a15.1,15.1,0,0,1,4.95-3.92c1.41-.6,2.44-2.21,3.48-3.49a12.73,12.73,0,0,1,9.24-4.89,99.56,99.56,0,0,0,10.68-1.79,6.79,6.79,0,0,0,2.26-1.51c1.4-1,2.63-2.59,4.2-3.1a20.81,20.81,0,0,1,6.33-.56c3.65,0,7.1,1.12,10.49,2.31a30,30,0,0,1,4.68,2.4c3.15,1.76,6.35,3.43,9.38,5.38s5.69,4.07,8.52,6.12c.9.65,1.79,1.3,2.67,2,3.24,2.41,6.72,4.44,9.63,7.36,2.25,2.26,5.25,3.75,7.85,5.69,3.6,2.68,7.13,5.47,10.72,8.17.95.71,2.08,1.2,3,1.91,3.4,2.56,6.76,5.16,10.12,7.76,4.14,3.2,8.21,6.49,12.42,9.58,4,2.93,8.17,5.6,12.21,8.47,3.39,2.4,6.67,5,10,7.39,1.57,1.13,3.25,2.09,4.85,3.17a39.46,39.46,0,0,1,5.3,3.75c3.35,3.23,7.31,5.59,11,8.35,3,2.27,5.84,4.86,8.85,7.18,3.52,2.71,7.15,5.28,10.72,7.91s6.9,5.23,10.47,7.67c2.44,1.67,5.06,3.06,7.64,4.5,4,2.25,8,4.57,12.18,6.61a81.78,81.78,0,0,0,9.22,3.71c4.45,1.55,8.94,3,13.46,4.35a52.75,52.75,0,0,0,21.8,2.18c1.56-.19,3.16-.09,4.73-.25a6.64,6.64,0,0,0,2.24-.7c1.85-.93,1.73-.94,1.32-2.91a9.61,9.61,0,0,1,.2-2.75c-.57-1.26-1.11-2.46-1.93-4.25l2.24,1c-.07-.55,0-1.08-.18-1.29-1.18-1.16-2.43-2.24-3.65-3.36-.58-.55-1.43-1-1.64-1.71-1-3.14-2.27-6.29-.87-9.68a1.62,1.62,0,0,0,0-1.33c-1.16-1.55-.21-3,0-4.5.22-1.26.15-2.57.33-3.85.3-2.11.69-4.21,1.05-6.32,2.36-.91.62-3.68,2.23-4.93-.78-1.93.18-3.62.8-5.33.86-2.37.86-5,2.53-7.12a5.18,5.18,0,0,0,.6-2.39c.29-2,.49-4,2.1-5.58.41-.4.27-1.38.34-2.1.14-1.45.48-1.77,1.94-1.56a3.52,3.52,0,0,1,1.57.47c3.38,2.58,7.5,3.59,11.25,5.38,5.15,2.48,10.33,4.86,15.46,7.38,1.81.89,3.45,2.13,5.25,3.06a124.33,124.33,0,0,1,16.81,10c5.28,3.87,10.91,7.28,15.49,12,2.33,2.4,4.68,4.78,6.95,7.24a31.35,31.35,0,0,1,1.9,2.72c2.76,3.7,5.59,7.36,8.3,11.11,2.11,2.9,4.29,5.76,5.54,9.22a83.88,83.88,0,0,0,3.77,8.58c1.91,3.84,2.87,8,4.12,12,.35,1.14,1,2.19,1.41,3.33,1.74,4.87,3.41,9.77,5.19,14.63,1.43,3.91,3,7.77,4.47,11.66.95,2.49,1.78,5,2.85,7.46a21,21,0,0,1,1.73,6.68c.12,1.39,1,2.72,1.61,4.05.22.5.76.91.85,1.41.82,4.88,3,9.4,3.93,14.23,1.13,5.77,3.09,11.33,4.2,17.1.19,1,.27,2,.46,3,.29,1.43.7,2.84.94,4.27a59.53,59.53,0,0,1,1.22,8.45c.15,6.68,0,13.37-.08,20.05-.06,3.51-.78,7-.49,10.5s.3,7.18,2.17,10.48a9.53,9.53,0,0,1,.67,4c.12,2.49-.18,5,1.37,7.24.23.33.13.91.14,1.37.08,2.18.28,4.37.18,6.54-.12,2.55-.45,5.09-.77,7.63a41.44,41.44,0,0,0,.41,13c.69,3.73,1.74,7.62.37,11.49a3.28,3.28,0,0,0,0,1.08c0,2.55.1,5.1-.07,7.63A23,23,0,0,0,675.81,872a24.43,24.43,0,0,1,1.72,4.09c.13.41-.41,1-.73,1.78,1.26,0,1.66.58,1.76,1.82a37.79,37.79,0,0,0,1.07,4.84,32.27,32.27,0,0,1,.68,3.5,83.5,83.5,0,0,1,.89,10.79c-.13,4.35-.44,8.72-2.46,12.82-1.52,3.09-.86,6.54-.65,9.86,0,.73.2,1.46.22,2.2a22.67,22.67,0,0,0,1.35,7.8c.91,2.33.82,5.07,1,7.64a15.72,15.72,0,0,0,1.59,5.92c.73,1.46.62,3.33.9,5a11.74,11.74,0,0,0,.33,1.77c.66,2,1.38,4,2.06,6,.26.78.22,1.91.75,2.33,1.51,1.21,1.47,2.82,1.67,4.43a22.2,22.2,0,0,0,1.87,6.41c.56,1.22-.06,1.63-.82,2.21a9.28,9.28,0,0,1,2.44,5.18c.25,2.67.61,5.33,1,8a8.31,8.31,0,0,0,.65,2.94c1.88,3.34.72,6.9.92,10.35a.74.74,0,0,1-.15.53c-1.94,2.09-1.08,4.73-1.5,7.12-.65,3.73-.5,7.52-1.67,11.23a83.76,83.76,0,0,0-2.54,12.43,90.89,90.89,0,0,0-.72,9.33c-.15,3-.05,6.11-.24,9.16-.15,2.23-.62,4.44-.9,6.67a42.27,42.27,0,0,0-.66,6.88,18.34,18.34,0,0,1-1.06,7.07,8.2,8.2,0,0,0-.46,1.88c-.26,2.67-.47,5.35-.7,8H0Zm17.89,118.3c1.1.06,2.3.26,2-1.87L18,841.32c-.95-.19-1.67,0-1.73,1.34Zm619.18-80.07.36-2.88c-1.36.81-.93,1.84-.74,2.83l-3-2.31a21.84,21.84,0,0,0,2.27-1.39,2.82,2.82,0,0,0,.85-1.24c.07-.18-.34-.53-.54-.8l-1.16,1.82c-.53-.59-.89-1-1.59-1.81-.14,1.91-.24,3.41-.34,4.77l3.39,1.83.74,1c.49-2,2.18-2,3.57-2.48-.24,1.53-.48,3.06-.75,4.82.69,0,1.46.18,1.6,0a2.42,2.42,0,0,0,.34-1.73,19.77,19.77,0,0,0-1.24-3C639.49,760.1,638.15,759.82,637.07,761.19Zm31.59,46.34-3.59,1.11c1.81.55,2.59,1.56,2.21,3.32-.08.34.33.79.49,1.14.29-1.93.56-3.77.86-5.6,1.34.39,1.73-.31,1.87-1.51ZM626.35,671.17l-1.17,1.94c2-.6,2-.6,1.41-2.08-1.22-1.59-2.35-3.26-3.67-4.77-2.73-3.11-2.77-3.08-4.67-3.43.53.57,1.37.9,1.69,1.51a6.72,6.72,0,0,1,.2,2.47,6.11,6.11,0,0,1,4.27,4Zm3.83,5.87c-.08.85-.15,1.69-.26,3,1.81-2.69,3.43-2.87,5.43-1.1a5.83,5.83,0,0,0,2,1.21c1.33.43,2.22,1,1.89,2.81.52-.52.87-1,.83-1.46-.16-1.59-1.53-2.25-2.65-3-1.87-1.27-3.81-2.43-5.75-3.58-.57-.34-1.28-1-1.83.09-2.11.42-.35-1.55-1.41-2l-2.4,2Zm-56.63-52.83L576,625c-.44,3.51.37,4.85,3.18,4.83l-2.27-1.21c.21-.46.42-.94.58-1.3l5,1.27c.56,1.94-.91,2.57-1.68,3.39H577l1.32,2.5c.35-.74.59-1.27,1-2.07l1.6,3.54c.5-.34.81-.51,1.08-.73a7.76,7.76,0,0,0,.66-.75l6.27,5.86,1.78-2.26c1.72.52,2.74,1.57,2,3.85l2.38-.65c-.28-1.63.24-3.36-1.74-4,2.26-2.13,2.11-3.9-.52-4.85-1.94-.71-3.25-2.1-4.71-3.34s-2.66-2.55-3.95-3.87c-1-1-1.88-2-3-3.17-.71.2-1.85.82-2.38-.81l2-.35c-4.39-3.82-5.81-4.41-8.69-3.68.58,1.27,2.79,1.17,2.59,3C574.51,621.48,575.86,623.08,573.55,624.21Zm37.16,28.62-6.23-4.63c.09.95.16,1.8.25,2.74,1.68.11,3.2.5,3.78,2.41a3.56,3.56,0,0,1-.62.18c-.38,0-.76,0-1.14,0,.15.38.25,1.06.44,1.09a3.51,3.51,0,0,0,1.94-.18A7.81,7.81,0,0,0,610.71,652.83Zm40.18,161c.24-1.78-2.44-3.26.5-5.14l-2.94.5c1.31,2.83,1.31,2.83-.3,4l-1.51-1.73C647.26,813.85,648.16,814.29,650.89,813.83Zm3.75-31.92c-1.52-2.34-2.63-4.61-5.57-4.89-.59,2.13,1.51.64,1.78,1.52C651.41,781.92,651.41,781.92,654.64,781.91ZM114.39,628.35c-2.47-2.12-5-.79-7.59-.33C109.27,629.31,111.85,628.38,114.39,628.35Zm532,144.74c-.82-2.71-2.55-3.66-5.64-3.52l3.57,1.52c.15,1.24-1.65,1.88-.4,3.36Zm19.36,25.25,2.47.25.1-.35-2-1.36c-.83,2-2.36-.27-3.48.76l3.3,4C666,800.2,665.88,799.36,665.75,798.34Zm-601,87.13c-.69-.61-1-1.07-1.28-1.1-1.61-.16-3.25-.49-5.26.6C60.41,886.1,62.28,885.73,64.7,885.47ZM619.51,735.66l1.92,2.29,2.43-2.4-.32-.4-2.54.55v-2.31Zm42.87,64c.43,1.14.64,2.29,2.33,2.43.95.07,1.82,1,2.73,1.5l1.72,1.07c-.69-1.77-1.63-2.87-2.64-2.87C664.63,801.84,663.67,800.59,662.38,799.69Zm-2.45-7.39c.83,1.4-.64,3.28,1.47,4.32C661.89,792.93,661.88,792.88,659.93,792.3Zm-12.88,16.18c-.18-.46-.24-1.2-.56-1.35-1.82-.82-1.55-2.07-.47-3.67C643.56,804.68,643.69,805.31,647.05,808.48Zm10.38-21c.31-2.15-1.19-3.08-2.31-4.22C655.68,784.76,655.45,786.65,657.43,787.53ZM24.1,982c-.29-.56-.43-1.17-.63-1.19a4.51,4.51,0,0,0-4,1.19ZM584.21,638.81c-.09,1.52-.37,3,.79,4.36C585.45,639.42,585.45,639.42,584.21,638.81Zm45.68,111.72c-.15,1.18-.3,2.36-.44,3.54C630.69,753.12,631.55,752.11,629.89,750.53Zm-4-1.21,2,2.71C628.25,749.71,627.94,749.35,625.9,749.32Zm10-.08,2.67-.16c-.54-.89-.93-1.56-1.45-2.41C636.66,747.58,636.33,748.26,635.87,749.24Zm-511-.24c-1.68-1.2-2.85-1-4.48,0ZM573.1,615l0-.67-2.52-1.23a11.92,11.92,0,0,0,0,1.83A18.44,18.44,0,0,0,573.1,615Zm-3.41-3.05c2.33.06,2.76-.51,1.88-2.25ZM643.18,766a7.65,7.65,0,0,0,.45,1.69,11.34,11.34,0,0,0,2.07-.35l0-.58Zm10.46,52.18c1.05.29,1.57.42,2.07.59s.76.32,1.14.49C656.13,818.31,655.52,817.11,653.64,818.17ZM617.56,726l-.37-.62c-.71.77-2.22.54-2.41,2.54Zm-.59,1.89c-.73,1.47-.17,1.84.8,1.88.1,0,.22-.23.44-.48Zm19.44-42.17-.71.15c.65.74-.31,1.8,1.32,2.84C636.75,687.38,636.58,686.54,636.41,685.7Zm34.3,123.56-.69.18a9.93,9.93,0,0,0,.32,1.22,6.72,6.72,0,0,0,.52.94l.3-.12Zm-22.65-3.69-.46.65c.92.26,1.27,1.43,2.68,1ZM613.37,664.76l-1.18,1.58C613.71,666.49,613.71,666.49,613.37,664.76Zm-38.15-48.32.26-.37-1.11-.83-.31.43Zm41.87,99.47c-.22-.18-.4-.46-.56-.45s-.47.38-.43.48a2.45,2.45,0,0,0,.54.63Zm39.27,73-1.55.79,1.69,1C656.45,790,656.41,789.55,656.36,788.9Zm-21-47.6v-.52l-1.36-.13c0,.25,0,.49,0,.73Zm-601.64,70,.25.42,1.2-.71-.28-.46ZM686.31,970.55l1.68.2c0-.39,0-.77-.07-1.48Zm1.93,5.51-.37.48,1.7,1.59c-.09-.65-.05-1-.18-1.11A10.63,10.63,0,0,0,688.24,976.06Z" transform="translate(0 -18.73)"/><path d="M376.11,408.61c.35.67.69,1.35,1,2-3.78,2.66-7.22,1-8.22-5.9a6.84,6.84,0,0,1-1.08-.76c-1.86-1.95-4.18-1.81-6.54-1.46-1.36.2-2.7.59-4.07.67-4,.23-4.45.76-3.85,4.8l-1.39.69v3.79l1.15-.81a7.76,7.76,0,0,1-1.49,6.24l1.08,1.56c-.53,2.26-1.19,4.38-1.49,6.55-.27,1.9-1.56,3.25-2.12,5a6.09,6.09,0,0,0-.54,2.11,2.54,2.54,0,0,1-.7,2.38c-.59.61-.23,2.14-.3,3.38l-.82-.08a33.61,33.61,0,0,0-1.57,4,36.74,36.74,0,0,0-.62,4.45l1.75-.2c.06.26.19.48.12.57-1.49,2-2.84,3.93-2.12,6.68.38,1.47-.8,3-2.38,3.56-1,.32-1.94.53-3.23.87a9.19,9.19,0,0,1-.61-1.88c-.11-.91.05-1.86-.05-2.78-.34-2.86.59-6-2-8.37-.34-.31-.28-1.05-.42-1.59a8.49,8.49,0,0,0-3-5.08,8.05,8.05,0,0,1-3-4.85,3.36,3.36,0,0,0-1.33-2.19,2.44,2.44,0,0,1-1.39-2.74,10.11,10.11,0,0,0-1.7-6,26.46,26.46,0,0,1-3.16-7.65c-.43-2-2.07-3.83-3.19-5.72-.24-.39-.82-.68-.86-1.06-.21-2.15-2.45-3.41-2.42-5.65,0-.25-.1-.67-.28-.75-2.25-1-1.65-3.05-2-4.79-.6-3.45-1.21-6.9-1.9-10.33a4.1,4.1,0,0,0-1.06-2.2,4.26,4.26,0,0,1-1.35-3.74c.06-2.14,0-4.28,0-6.42s0-4-1.14-5.9a5.43,5.43,0,0,1-.52-2.69,30.31,30.31,0,0,0-3-11.77c-.62-1.35-2-2.38-3.2-3.41a6.31,6.31,0,0,1-1.74-3c-.82-2.32-1.07-4.9-2.12-7a11.73,11.73,0,0,1-1.71-6.22c0-.44,0-1.1-.28-1.33-2.34-2-1.75-4.92-2.52-7.41-.33-1-1-2-1.44-3-.83-1.93-2.23-3.88-2.24-5.82,0-2.66,0-5-2-7-.68-.73-.79-2-1.07-3.09-.48-1.76-.49-3.66-1.69-5.21a3.42,3.42,0,0,1-.49-1.58c-.42-2.73-.71-5.48-1.24-8.19a30.63,30.63,0,0,0-1.45-4.09,8.25,8.25,0,0,1-.6-2.05c-.09-1.2,0-2.42,0-3.62a5.3,5.3,0,0,0-1-3.65c-.5-.59-.53-1.56-.92-2.29a11.13,11.13,0,0,0-1.88-3c-1.71-1.65-1.13-3.43-.91-6.73a9.34,9.34,0,0,0-.4-2.91c-.16-.67.08-1.82-.35-2.45-1.68-2.43-1.52-5.22-1.79-8a7.92,7.92,0,0,0-1.22-3.58,5.33,5.33,0,0,1-1-3.35,12.34,12.34,0,0,0-1.34-6.71,2.93,2.93,0,0,1-.28-1.88c1.11-4.27-.37-8.24-1.35-12.26-.39-1.59-1.11-3.1-1.66-4.65a2.5,2.5,0,0,1-.26-1.32c1.44-4.84-.34-9.37-1.39-13.93a8,8,0,0,1,.09-4.89c.19-.52.52-1.13.39-1.59-.94-3.45.11-6.84.33-10.23s0-6.91,2.6-9.69a1.86,1.86,0,0,0,.54-1.25c-.25-2.4,1.36-3.73,2.85-5.13a4.72,4.72,0,0,0,1.8-3.3,3.59,3.59,0,0,1,1.16-2.13A30.37,30.37,0,0,0,282,157.06a4.58,4.58,0,0,1,1.19-1.79,4.09,4.09,0,0,0,1.43-2.55c.36-1.3,1.52-2.39,1.77-3.69.62-3.18,2.52-5.9,2.93-9.17.17-1.38,1.36-2.59,1.85-4,1-2.79,1.85-5.62,2.67-8.46.64-2.22.58-2.24,2.83-2.68a4,4,0,0,0-.16-1c-1.16-2.56-.39-4.62,1.85-6.33l.1-.1c1.84-2.38,3.61-4.87,7.2-4.34,1.72-1.29,3.81-2.2,4.77-4.38-2.48-1.24-2.5-1.23-6.59,1.61.88-2.27,2.71-2.72,3.86-3.83s2.45-2.53,3.71-3.75,2.58-2.37,3.84-3.6,2.61-2.58,3.87-3.91,2.08-2.92,3.49-3.73c1.58-.92,2.56-2.29,3.82-3.43s2.63-2.36,3.87-3.6,2.37-2.54,3.61-3.88c1.29.7,1.94,2.53,3.4,1.57.82-.54,1.32-1.57,2.35-2.85l-3.33.26c0-.49-.11-1.16.15-1.45,3.54-3.91,7.05-7.84,10.72-11.61,2.44-2.51,5.1-4.82,7.71-7.15a6.64,6.64,0,0,1,2.2-1.12c2.25-.8,4.21-1.93,5.17-4.25,2.67,1,3.68-1.32,5.18-2.52s3.64-2.11,3.52-4.87c2,.75,3.45.16,5-.94a22.6,22.6,0,0,1,4.53-2c-1.36-2-2.14-2-4.73-.29,1.11-2.06,1.57-2.29,3.62-2.11a3.4,3.4,0,0,0,2.13-.2c2.32-1.75,4.88-1.23,8-1.13-1.3.71-2.12,1.24-3,1.62a73.77,73.77,0,0,0-15.16,8.83c-4,3-8.19,5.57-12,8.71-2.06,1.68-4.38,3-6.51,4.65-1.9,1.44-3.92,2.74-5.16,4.94-.42.75-1.41,1.17-2.14,1.74-1.27,1-1.37,2.06,0,3.49.33-.74.58-1.31.81-1.8,1.35-.28,2.7-.48,4-.85a2.32,2.32,0,0,0,1.42-1.07,3.77,3.77,0,0,1,3.56-2.64,11.35,11.35,0,0,0,2-.58l.21.54-4.51,1.82,2.76,2c.76-1.55,2.28-1.17,3.77-.32,2.14-1.67.39-3-.15-4.47l1.63-2.71c.8-.18,1.69.9,2.63-.28a3.47,3.47,0,0,1,2.95-1c2.06.57,2.68-1.14,3.91-1.88s2.84-1,2.95-3.12c.07-1.54,3.09-3.25,5.11-2.95,1.39.21,2.32,0,3.06-1.2a2,2,0,0,1,1.11-.78c4.68-1.29,8-4.89,12.27-7,3.73-1.85,7.12-4.36,10.81-6.29,2.87-1.5,6-2.57,8.95-3.83a1.87,1.87,0,0,1,.8-.23c4.47.39,8.4-1.27,12.34-3.07a12.22,12.22,0,0,1,5.17-.95c-1.61.79-3.18,1.7-4.85,2.33s-3.2,2-5.19,2.46c-2.17.49-4.38.82-6.55,1.47-2.78.83-5.29,2.11-8,3.23.24.88.42,1.55.62,2.3l-4.14,1-.06.55L407.84,46c-3-.88-5.09.87-7.32,2.29.47,1,1.05,1.1,1.59.49.95-1.07,2-1.48,3.9-.68a27.82,27.82,0,0,0-4.08,2.23,19.52,19.52,0,0,0-2.55,3.16c2.55.39,4.41,0,5.69-1.9a2.7,2.7,0,0,1,.75-.79c1.32-.88,2.62-1.79,4-2.56a15.36,15.36,0,0,1,2.53-.87c.35,1.28.64,2.31,1,3.6l7.09-3s.09-.5-.1-.66c-1.27-1.08.06-1.58.57-1.77a21,21,0,0,1,3.71-.68l-1.87,2.32A7.68,7.68,0,0,1,426,51.3a6.19,6.19,0,0,1,.38,1.67c0,2.48.18,5,.35,7.44,0,.42.36.81.79,1.73.33-2.33.51-4.22,2.39-5.22.2-.1.27-.48.36-.74a44.21,44.21,0,0,0,1.59-5.1c.44-2.27,1.57-3.24,3.94-3a16.54,16.54,0,0,0,2.11,0l-.08.06c.73-.49,2-.88,2.1-1.48.29-1.52,1.37-1.8,2.44-2.29s1.77-1,2.72-1.36c1.22-.42,2.3-1.19,3.74.2.87.84,2.73.68,4.15.95.34.06.71,0,1.05.08,2.1.53,2.1.54,4.26-.58-.56-1.61.17-2.6,1.68-3.41a14.62,14.62,0,0,0,2.7-2.57c3,.88,5.33-1.37,8-2.42,2.22-.89,4.26-2.21,6.46-3.14,1.65-.7,3.25-1.34,4.14-3,.79-1.51,2.36-1.12,3.72-1.29a12.51,12.51,0,0,0-2.69,1.34c-.76.63-1.09,1.82-1.88,2.36-1.9,1.3-4,2.35-6,3.52-1.11.66-2.2,1.36-3.29,2.06-3,1.92-3,1.92-6.82,2.24l1.82,3.16L461.84,45a2.31,2.31,0,0,0-.06.83c.11,1.14.76,1.39,1.74.9,1.29-.64,2.57-1.3,4-2,.39,2.24-1.39,1.45-2.25,2.16.13,1.54-.67,2.65-2,3.69a22.31,22.31,0,0,0-3.17,3.7l.09-.09-2.56-.83L458.71,55l-2.95,3.75a6.8,6.8,0,0,0,4.44-.86,25,25,0,0,1,3.12-1.52c1.46-.54,2.53-1.78,4.17-2,1.36-.22,2.66-.86,4.08-1.08-.76,2-2.56,2.62-4.08,3.47a9.94,9.94,0,0,0-3.92,3.82c-.07.13,0,.34,0,.85l1.08-.67a19.26,19.26,0,0,1,4-2.41c3-1,6.09-1.52,9.11-2.35,1.77-.49,3.51-1.12,5.23-1.78,2.23-.85,4.42-1.83,6.66-2.68,1.62-.61,3.52-.77,4.89-1.73,2.91-2,6.3-2.5,9.54-3.47a9.08,9.08,0,0,1,3.41-.22c1.65.17,4.91-1.1,5.48-2.64a2.23,2.23,0,0,1,1.65-1.58c3.21-.87,6.41-1.82,9.67-2.5a4.41,4.41,0,0,1,4.33.91,30.94,30.94,0,0,0-13.38,3c1.7,1.19,2.91.06,4.15,0a15.69,15.69,0,0,1,4,.29c-.54.17-1.07.38-1.62.51-1.24.28-2.49.53-3.75.79s-2.44,1.4-4,.7c-.28-.13-.9.49-1.37.76a9.31,9.31,0,0,1-2.38,1.31,11.48,11.48,0,0,0-5.75,2.91c4.28.39,7.73-2.58,12-2.81l-3.29,1.74c3.07,1.53,5.72.79,8.23-.91l-.07-.07c.75,1.17,1.88.68,2.9.66l-.06-.07c-.31,1.29-1.44,1.25-2.37,1.35-3.86.42-7.73.72-11.59,1.15-2.46.28-4.89.74-7.34,1-.51.06-1.06-.26-1.6-.28a14.54,14.54,0,0,0-1.86.13l.05.62h12.8c-.35.47-.48.81-.64.83-3.45.35-6,2.31-8.6,4.41a19.22,19.22,0,0,1-2.85,1.68l.85,1.57c1.87-1.5,3.52-3.65,6.43-3.55.24,0,.64-.12.72-.3.82-1.76,2.48-1.61,4-1.93,1.25-.26,2.81-.53,3.56-1.38,1.65-1.87,3.78-1.36,5.67-1.54a33.3,33.3,0,0,1,6.36.39,17.49,17.49,0,0,1,2.12.44l-5.58,2.81,1.55-2.11c-2.77-1.06-4.48-.76-6.5,1,.06-.78-.17-1.46-1-.9a23.46,23.46,0,0,0-2.7,2.3l.21.27,3-1.24a2.92,2.92,0,0,0,1.41,2.93c.74-1.52,1.88-2.4,3.68-1.93L519.5,60c.63.67,1.23,1.13,2.22.32a28,28,0,0,1,3.41-2.45,2.93,2.93,0,0,1,1.75-.29,4.7,4.7,0,0,0,4.37-1.3c1.54-1.54,3.83-1,5.61-2.36,0-1.8.86-2.67,3-3.26a20.19,20.19,0,0,1,6.47-1,3.15,3.15,0,0,0,1.62-.79c1.2-.85,2.33-1.81,3.53-2.66a1.8,1.8,0,0,1,1.25-.38c4.14.87,8.49,1.28,12.33,2.89,2.89,1.21,6,.71,8.76,2,1.08.52,2.75-.18,4.14-.35.36,0,.86-.38,1-.24,1.87,1.47,4.19.18,6.12,1.07.4.19.66.69,1.39.79-.2-.5-.41-1-.71-1.75l3.32-1.87c-.46,2.12-1.1,3.82-.69,5.7.14.68-.66,1.57-.66,2.62.62-.89,1.25-1.78,1.87-2.65,1.48,1.48,1.54,1.81.28,2.89a31.25,31.25,0,0,1-2.71,2c-.9.61-1.66,1.23-1,2.47.51,1,1,1.83,2.32.94.24-.17.92.32,1.61.58l-.32-2,1.63-.46-.49,2.9c2.44,1.37,5,2.8,7.55,4.25a3,3,0,0,0,3.17-.16c.76-.43,1.46-1.2,2.78-.58l-1.64,1.77a5.76,5.76,0,0,0,1.81.63c2.22,0,4.44-.21,6.66-.32.68,0,1.37,0,2,0-.25,1.48-.44,2.61-.67,4l-2-1.45c-.3.54-.49,1-.74,1.31a2,2,0,0,1-3.37.15c-.47-.63-.55-1.67-1.78-1.21.12,1.47.23,2.92.35,4.43L603,77.4c.67,1.45,1.74,1.31,2.88,1.17,2.1-.26,2.4.14,1.77,2.18a5.32,5.32,0,0,0-.28,1.35c0,1.36-.75,2-2,2.18a30.84,30.84,0,0,0-3,.83c.37,1.24.63,2.28,1.88,1.58,2.06-1.16,3.88-.65,5.76.44l2-1.58c1.14,1.76.24,3-.61,4.13-1.51,2-3.19,3.85-4.65,5.87a9.21,9.21,0,0,1-3.25,2.88,10,10,0,0,0-4,3.95,9.74,9.74,0,0,0,1.47.91,32.6,32.6,0,0,0,4.38,1.46c1.48.33,3.13.84,4.26-.92.14-.21.73-.13,1.11-.19l.29.52-4.51,3.62,4.1,3.17,1.42-1.7c.49,1.4,1,2.84,1.51,4.37.45-.29,1-.87,1.5-.9s1.1.5,1.67.8l-1.4,2.23.28.54c1.48-2,3.09-2.2,5-.67-1.94,1.82-5.19,1.8-6.23,4.74-2.26-1.13-2.9-4.22-5.71-3.92-.3-.9-.33-1.88-.83-2.28-.81-.64-.78-1.09-.19-1.76-1.71,0-1.95.19-1.43,1.38.29.65.69,1.25,1.06,1.91-.31.07-.57.18-.62.12-2-2.53-3.89-5.12-5.92-7.61a71.22,71.22,0,0,0-5.45-6.18c-2.5-2.45-5.23-4.68-7.85-7-2.9-2.58-5.84-5.16-9.5-6.55a32.93,32.93,0,0,0-5.84-1.1c.25-.43.51-.85.8-1.36-1-.27-1.83-.93-2.48.17l1.7,1.18c-.08.44-.09,1.23-.24,1.26a3.22,3.22,0,0,1-1.77-.13c-.45-.21-.74-.77-1.31-1.42l-1.37,2.54-1.7-2.45c-1,1.17-2.06,2.12-3.67,1.64-.25-.08-.93.45-1,.79-.37,1.62-1.57,1.64-2.87,2-2,.52-4,1.19-6.16.88-.49-.07-1-.21-1.45-.32a11.06,11.06,0,0,0-1.5-.3,46.08,46.08,0,0,1-6-.36c-1.11-.2-2.07-1.19-3.56-2.11-1.8,0-3.06,1.94-4,3.57-.66,1.15-.07,3-.07,4.54,0,.67-.08,1.34-.15,2.48l-2.13-1.47,1-1.23c-1.11-.39-2,0-3.2.33l1.64,2.1c-.65,1.4-1.91,1.78-3.33,2a3.87,3.87,0,0,0-1.93.83c-1.29,1.25-2.44,2.64-4,4.32l.13,1.31c-1.31.83-2.53,1.7-4.11.36,1,1.44.38,2.4-.74,3.28-2.34,1.84-5.1,2.4-8.19,2.71-.21,1-.45,2-.73,3.26l-1.31-.81c-2.08,2-4.49,3.87-5.61,6.77l.05-.06c-1.05,1.79-1.05,1.79.28,3.08-1.53,1.43-3.15,2.79-4.55,4.34a7.28,7.28,0,0,0-.89,2.49,15.19,15.19,0,0,1-1.23,3.57,7.94,7.94,0,0,0-1.65,5.42,4.07,4.07,0,0,0-3.18,3.47,15.28,15.28,0,0,1-1.88,6.21,55.24,55.24,0,0,1-3.79,7.07,3.78,3.78,0,0,0-.91,2.38c.39,2.4-1.6,3.54-2.43,5.28-2.31,4.92-4.54,9.89-6.72,14.87-.85,1.93-1.3,4-2.25,5.9a46.66,46.66,0,0,1-3.26,4.72,23.35,23.35,0,0,0-2.06,3.31c-1.25,2.66-2.11,5.53-3.61,8-1.2,2-.2,4.07-.84,6.05-.22.67.58,1.66.93,2.54l9.19.6a5.65,5.65,0,0,1,1.91.19,2.14,2.14,0,0,0,2.52-.32c.41-.31,1.19-.16,1.77-.21.22.79.4,1.38.6,2.07a14.63,14.63,0,0,0,3.52-.33,4,4,0,0,1,2.26-.22,29.11,29.11,0,0,0,5.12.09,4.17,4.17,0,0,1,4.48-2.64,26.18,26.18,0,0,1,4.37.68,84,84,0,0,0,8.78,2.5c2,.39,4,1.28,6.22.93,1.4,1.89,3.43,2.33,5.64,2.4a38.77,38.77,0,0,1,4.16.4c2,.26,2.35.95,1.39,2.72a5.62,5.62,0,0,1-.64.83c1.79,1.33,1.91-2.56,3.71-.78l-1.2,1.7c.53,3.06,2.92,3,5.83,3-1.12,1.16-1.9,1.88-2.57,2.69s-.4,1,.76,1.51c0,2-2.28,3.08-1.93,5.2,0,.16-.67.48-1.06.66-1.67.76-3.35,1.51-5.4,2.42-.71-.38-1.71-2.48-3.37-.36-.13.16-.81-.16-1.24-.19a6.1,6.1,0,0,0-1.86,0c-2.38.61-2.37.64-4.17-1.67-1.9,1.39-3.93-1.93-6.1.4l1.27,1.75a4.62,4.62,0,0,1-1.57.18,4.24,4.24,0,0,1-1.68-.95c-1.4-1.39-2.61-2.47-5-1.76-1.18.35-2.85-1-4.4-1.56l-.2,1.13c-.82-.06-1.65-.17-2.49-.16a18.12,18.12,0,0,0-3.3.17c-1.71.32-2.6-.61-3.38-1.85s-1.74-1.56-3.52-1.15a6.08,6.08,0,0,1-2.29-.43c-.12-1.31-1-1.3-1.74-.75s0,1.05.45,1.48a6.26,6.26,0,0,0-5.64-.06c-.85.45-2.1.1-3,.52-1.65.79-2.82-1.4-4.39-.51-1.5-1.38-3.06.21-4.6-.06-.3,0-.67.22-1,.37a34.13,34.13,0,0,1-3.68,1.72,44,44,0,0,1-4.56,1.13,3.82,3.82,0,0,1-1.64.22c-2.56-.67-4,1-5.61,2.47-.27.25-.47.66-.79.77-2.24.79-4.51,1.52-7.27,2.44a5,5,0,0,1-3,2.84,5.2,5.2,0,0,0-2.16,2.06,4.69,4.69,0,0,1-3.17,2c-2,.44-4.06.88-6.07,1.4a5.68,5.68,0,0,0-1.48.92l.25.59,2.42-.91c.31.45.66.94,1.06,1.5-3,1.76-4.61-.61-6.62-1.78l2.46-3.73c-1.61-1.86-3.43-.69-4.93-.39a32.1,32.1,0,0,0-6.24,2.18c-1,.45-1.87,1.39-2.89,2-2,1.12-4.08,2.14-5.69,3l-3.88,6c-.27-.57-.51-1.07-.92-1.91-.32.59-.76,1-.68,1.32.61,2,.23,3.7-1.57,4.22-2.13.63-2.57,1.87-2.07,3.8-1.08.14-2,.1-2.2,1.53a4.43,4.43,0,0,1-1.2,1.92c-.28,2.53-.49,4.52-.73,6.5,0,.26-.14.65-.32.73-2.1.91-1.29,2.62-1.08,4.07.4,2.82,1.06,5.61.47,8.48-.27,1.33-.63,2.65-1,4.1l1.91.92c-.08.26-.08.51-.18.56-1.4.65-2.67,1.51-4.45,1-.65-.18-1.63.83-2.52,1.33l1.22,2.3-4.43.93,2.08,2.34-1.52,1c.67,1.42,1.05,2.88,0,4.36a2.16,2.16,0,0,0-.13,1.35c.3,2.46.63,4.91.95,7.36a2.61,2.61,0,0,1,.06.27c.15,1.46-1.61,2.39-.95,4.14a8.88,8.88,0,0,1,.15,4.05,19.66,19.66,0,0,1-1.25,3.59c.12.21.45.82,1.06,1.95-.79-.41-1.11-.7-1.44-.72a4,4,0,0,0-1.77.22,1.36,1.36,0,0,0,0,1.25,3,3,0,0,0,1.54.7c.27.06.61-.26,1.2-.08l-2.79,3.19c.15,1.3,2.39.56,2,2.42l-3,.92c2.73,4.51,6.18,8.6,5,14.11.9.9,3,.79,1.82,2.47l-3,2.2-1-1.69c-.47.79.09,2.34-1.65,2-.09-.74-.18-1.52-.28-2.35l-2.77-2-1.39,1.52c.18.35.23.62.32.64,1.65.27,2.15,1.25,1.79,2.8a2.73,2.73,0,0,0,.42,2.87l2.58-3.47a17.42,17.42,0,0,0,.7,2.68c.68,1.41,1.44,2.78,2.22,4.15.45.8,1,1.54,1.46,2.35a8.7,8.7,0,0,0,2.91,2.48c.83.19,1.37.43,1.54,1.56a28.24,28.24,0,0,0,1.58,4.87c-1.73.94-1.73.94-3.14-1.33l-1,1.51,4.89,4.19c-1.08,1.49-1.93,2.68-2.84,3.83-.05.06-.59-.25-.94-.41,1.39-1.6,1.39-1.6-.12-2.85-.14-.12-.38-.17-.45-.31-1.55-3.48-4.67-4-7.92-4.12L373.52,375l-.44.05c0,.53-.09,1.07-.15,1.84-.23.06-.68.34-.86.22q-2.15-1.42-4.17-3a1.21,1.21,0,0,1-.3-1c.68-3.55-.28-6.89-1.17-10.26-.15-.6-.25-1.64.06-1.87,1.51-1.09,0-2,.23-3.31-3.15,1.15-5.92,2.23-8.74,3.15a13.17,13.17,0,0,1-3.8.59c-1.75,0-2.69-.86-3.23-2.69a10.17,10.17,0,0,0-8.16-6.62c-1-.09-1.93-.35-3.24-.6l1.32-2a13.92,13.92,0,0,1-6.38-3.4A23.69,23.69,0,0,0,331,343.8c-.52-.36-1.35-.81-1.37-1.24-.13-3-2.83-4-4.67-5.15s-4.37-.87-6.51-1.21c-.15,1.13,0,2.12-.42,2.55s-1.41.32-2.14.44c0,.09-.09.2-.06.26a32.65,32.65,0,0,1,2.2,7.39c.63,3.42,2,6.7,3,10.06s2.07,6.88,3.14,10.31a12.22,12.22,0,0,0,.86,1.74,86.62,86.62,0,0,1,4.25,9.84c1,2.8,1.66,5.65,2.54,8.45s2.09,5.82,4.89,7.59a5.22,5.22,0,0,1,1.13,1,17.1,17.1,0,0,0,9.18,5.93,33.54,33.54,0,0,0,4.08.76c-.19-2.34-.34-2.54-2.29-3.64.66.17,1.33.32,2,.52.25.08.55.47.69.41,1.81-.76,3.6.29,5.25.09a5.74,5.74,0,0,1,4.48.71c.38-3,3.56-4.46,2.32-8.14.84.92,1.28,1.41,1.68,1.86.35-1.33.71-2.69,1.06-4,1.88.19,1.34,1.4,1.31,2.47l1.22-.87a2.3,2.3,0,0,1,.93,3.37l3.35.31c.05.84.44,1.21,1.25.83a.73.73,0,0,0,.24-.69c-.44-.87-1-.52-1.53-.06,1.11-1.16.35-2.62.44-3.85,1.11.13,2.21.58,2.94.24.55-.26.65-1.51,1.09-2.67.54,1.49,1,2.76,1.55,4.24l-1.26.83c.44.73.76,1.26,1.27,2.08l-6.08,2c.77,1.47.78,2.88,1.95,4.06.62.62.15,2.45,0,3.7s-.07,2,1.21,2.33ZM427.62,205l.06.71a4.61,4.61,0,0,1-1.1.33c-2.05.13-2.61.59-3.32,2.52a8.38,8.38,0,0,1-1.19,1.78c-.31.44-1,.9-.91,1.29.23,1.7-.8,2.6-2.19,3.37l1.71,1.47,1.32-1.67v3.15c-.89.25-1.77.24-2.26.67-1.29,1.12-2.41,2.44-3.72,3.81a12.62,12.62,0,0,0,1.06.73,12.9,12.9,0,0,0,1.19.56,2.81,2.81,0,0,0-2.82,3,1.88,1.88,0,0,1-.45,1.25c-2.41,1.89-3,4.82-4.23,7.36-.78,1.61-1.31,3.34-2,5.13-1.9,0-3.23,1.24-2.43,2.77,1,1.94,0,3.26-.81,4.75a4,4,0,0,0-.16.91l1.88-.4-.26-2.11a36.74,36.74,0,0,0,13.68-5.16l-1.61-.93c1-.61,2.33-1,2.82-1.78,1.22-2.08,3.27-3.22,4.81-4.91a15.69,15.69,0,0,1,1.94-1.47,19.74,19.74,0,0,0,2.09-1.77c1.19-1.25,2.1-2.91,3.51-3.76s2.25-1.5,2.51-3l1.39.44c.14-.78.25-1.37.36-2l1.46.45a22.81,22.81,0,0,1,1.89-3.46c1.36-1.71,2.94-3.25,4.38-4.91.09-.1-.27-.61-.31-.7l7.37-8a4.11,4.11,0,0,1,.55-2c2.06-2.5,2.65-5.52,3.34-8.53.33-1.42.52-2.88.88-4.3.4-1.57.95-3.11,1.38-4.68a2.91,2.91,0,0,0,.16-1.65c-.68-1.72-.07-3.23.7-4.77L458,178.42v-1.65l-2.49,1.55L453.9,176c-1.11.66-2.25,1-2.78,1.7a52.51,52.51,0,0,1-7.55,8.41c-1.28,1.17-2.67,2.23-3.91,3.43-1.6,1.55-3,3.33-4.68,4.75-1.17,1-1.76,2.72-2.81,3.23-1.72.82-2,2.48-3.21,3.4l.64,1.41-4.19,1.57.09.49Zm14.72-33.72-3.68-.4c.55.35,1,.62,1.47,1,1.95,1.44,2.06,2.47.69,4.62-.7,1.09-1.62,2.05-1.4,3.66.12.86-.7,1.86-1.1,2.82.18,0,.52.11.7,0,1.19-.81,2.35-1.68,3.52-2.52a19.53,19.53,0,0,0,2.64-1.91c3.7-3.82,8.05-7.09,10.36-12.11.82-1.77,1.8-3.47,2.75-5.3-2.32-.38-2.32-.38-3.53-1.79-1.58-1.84-3-1.72-4.12.37a2.57,2.57,0,0,1-1.82,1.36,6.84,6.84,0,0,0-3.42,2.13,13.83,13.83,0,0,1-4.29,3.77c-1.29.71-1.23,1.31-.06,2.51A18.65,18.65,0,0,1,442.34,171.25ZM553.65,64.41l-.17-.8a24.32,24.32,0,0,0-4,.34c-4.49,1.08-9.11,2-12.19,6-.22.27-.68.34-.92.6-1.54,1.71-3.12,3.39-4.54,5.19-.53.67-1.11,1.83-.14,2.48a3.22,3.22,0,0,0,2.57.32c4.89-1.92,9.73-4,14.56-6a3.68,3.68,0,0,0,1.59-1.07c1.45-2.1,3.73-2.8,6-3.2,1.75-.31,2.42-1.32,3.6-3l-13,2.28-.09-.28ZM360.35,349.14c-2.38.69-2.24,1.89-1.6,3a31.5,31.5,0,0,0,2.4,3.24l-.52,1.33c1.38.43,1.38.43,2.49-.51l1.43,1.36a6.29,6.29,0,0,0-.62-4.53c-.22-.49-.63-1.05-.54-1.51.7-3.87-1.2-6.82-3-9.67L357,344.74c.27,1.28.49,2.35.73,3.52ZM394,66.77c-1.9-.31-3.16.67-4.33,2a8.26,8.26,0,0,1-2.33,1.94c-1.75.85-1.62,2.61-2.1,4a1.38,1.38,0,0,0,1.8,1.72c1.52-.48,3.1-1,3.94-3l-3.66-.67c.3-.31.44-.55.53-.54,2.19.33,4.1.23,5-2.32.26-.72,1.14-1.19,1.7-1.8.73-.79,1.43-1.61,2.44-2.76l-3-.57ZM499.44,79.18c3.45-.35,15.79-6.77,17.77-8.81-1.4.2-2.76.08-3.83.58-3.26,1.51-6.45,3.18-9.57,5A41.41,41.41,0,0,0,499.44,79.18ZM324.21,334c-.51-1.23-.7-2.77-1.58-3.52s-2.52-.59-4.05.31l1.71.74L319,333.9A4.48,4.48,0,0,0,324.21,334ZM428.88,62.42l-.82.35c.37,1.52.74,3,1.1,4.5,2.19.27,4.16.37,5.68-1.48-1.5-1.23-3.16-.25-4.73-.24ZM603.54,80.59l-3.5.2a40.71,40.71,0,0,0-.57,4.24c0,1.37.79,1.67,2.19,1.07l-1.23-2.32C600.79,82,603.76,83.33,603.54,80.59ZM458.65,175.27l.6-.7c-1.23-1.19.3-3.24-1.78-4.38l-2.37,4.47ZM491.75,65c2-1.55,5.12-.14,6.62-2.63l-2.45-1.86a5.37,5.37,0,0,0-.76,1.46,3.52,3.52,0,0,0,.26,1.31C493.88,63.43,492.29,63,491.75,65Zm-73.54,14.6c1-1.48,3.62-.45,3.58-3.26-.87,0-1.68,0-2.49,0C417.2,76.43,417,76.92,418.21,79.56ZM453,53c-.56,1.34-1.11,2.1-1.09,2.84,0,.48.79,1.17,1.36,1.36.75.24,1.67-1,1.39-1.88A10.48,10.48,0,0,0,453,53ZM579.42,71l4.64-.69C581.84,68.82,581.13,68.89,579.42,71ZM346.9,340.09c-3.23-.33-3.29-.29-3.08,1.75C345.11,341.71,346.45,341.72,346.9,340.09Zm259-251.34c1,.62,1.82,1.41,2.6.39s.2-1.7-1-2.26C606.91,87.49,606.42,88.09,605.86,88.75Zm-108.3-35c-2.46-1-2.6-1-3.54.71ZM327.61,331.8c-2.37-1.38-2.37-1.37-3.57.58ZM582.51,55c-2.07-1.06-2.07-1.06-3.38.18C580.33,56,581.39,55.06,582.51,55Zm4.82-1.65-.72-.37c-.36,1.21-2.05,1.72-1.72,3.71ZM444,47.49c.93.63,1.65.59,2.21-.15a.92.92,0,0,0-.21-.88C445.11,46,444.49,46.4,444,47.49ZM382.55,77.43c1.87.17,1.87.17,1.85-1.58Zm20.16-20.16-.93.15c.09.61.18,1.21.31,1.81a2.59,2.59,0,0,0,.67-.1C402.78,58.51,402.74,57.89,402.71,57.27ZM534.83,67.94l-.16-.66-3,.9.09.4ZM461.6,61.56l-.13-.7-2.32.65.11.49Zm-18.2-.38c-.68.92-.57,1.54.19,2a.54.54,0,0,0,.48-.12C444.63,62.31,444.25,61.78,443.4,61.18ZM548.94,57c0-.5,0-.38,0,0h2.31c0-.38,0-.5,0,0Zm-34.1,3h2.69C516.69,58.59,516.08,58.47,514.84,60ZM381.66,77.83c-1.42-.68-1.42-.68-1.58,1Zm174,12.27-.14-.41-2,.61.12.35ZM402.87,249.76c1.47.71,1.79.33,1.56-.65Zm39.07-187.2c-.26-.15-.5-.39-.66-.35s-.34.34-.51.53l.74.54Zm8.57-15.32.43-.19-.71-1.47-.38.17Z" transform="translate(0 -18.73)"/><path d="M463.07,545.76c-.93,2-1.46,2.21-2.83.91-1-.94-1.92-1.65-3.33-.75-.16-1.06-.16-2.08-1.65-1.66a19.24,19.24,0,0,1-1.37-2.79c-.41,1.28-.61,1.88-.83,2.57-1.79-2.24-2.05-3.15-2.56-8.94-2.15-.62-4.42-1.24-6.66-2a4.76,4.76,0,0,1-2.31-1.25c-1.34-1.8-2.61-3.58-5.35-3.52l.76-2.6-3.77-1.49-.81,1c-.3-.08-.66-.07-.81-.24-3.4-3.9-7.07-7.58-10-11.86a4.08,4.08,0,0,1-.34-1.75,3.88,3.88,0,0,0-2-3.27c-1.56-.94-2.58-2.75-3.84-4.17s-2.24-3.24-4-4.4c-1-.65-1.4-2.23-2.08-3.4l-.07.08c.17-.38.57-.86.46-1.12a22,22,0,0,0-1.41-2.43c2-1.65,4,.59,6.07-.25l-5.18-2.89c-2.1.62-2.1.62-3.28-1.78-1.69-3.48-1.7-3.61-.49-6.9l-2.9.48a4.44,4.44,0,0,1-1.21-5.41l-2.06-1.12c1-2,.32-2.74-1.91-2.35-.44-1.31-.68-2.5.54-3.61l3.39,1-2.46-3.36c-2.13.06-4.43.72-6.4-1.38.93-.49,1.81-1.2,2.68-.54,1.43,1.07,1.87.1,2.66-1L396,462.2a4.63,4.63,0,0,0-.85-3.86c-.6-.87-.62-2.16-.92-3.34H389.8c-.35-1.16-.78-2.39-1.09-3.64s-.27-2.26-1.53-3.06c-.58-.37-1.21-1.73.25-2.89.69,1.93,2.27,3.08,3.79,4.5a3.41,3.41,0,0,1,3.33-3.18l-2,1.56.22.48,5-.37c-1.24-1.34-1.24-1.34-3.37-1.63a11.57,11.57,0,0,0-.28-1.3c-.47-1.45-1.25-2-2.71-1.73a20.16,20.16,0,0,0-2.35.71c-1-.79-2-1.71-3.11-2.5s-2.23-1.34-3.68-2.19c.69-.32,1-.62,1.4-.62.85,0,1.25-.36,1.15-1.15-.17-1.3-1.11-.49-2.17-.61.9-1.25,1.61-2.38,2.48-3.39a1.67,1.67,0,0,0,0-2.66c-.77-.72-1.55-1.39-.75-2.63l-2-.2A2.65,2.65,0,0,1,382,428c-.64-1.37.89-2.66,0-4.23-.61-1.05-.35-2.59-.52-4.28l-3.63.48c-.38-.66-.83-1.42-1.37-2.34a6.61,6.61,0,0,0,4.49-3.18,1.41,1.41,0,0,1,2.32-.48c.86.64,1.78,1.06,3.07-.83a7.87,7.87,0,0,1-1.72-.92c-.25-.22-.39-1.07-.25-1.17.4-.27,1.21-.58,1.41-.39a17.54,17.54,0,0,1,1.85,2.42c3.46.93,3.46.93,1.86,4.37l9.74,3.51-1.92,1.72-2.83-1.23c.4,2.91,3.08,2.79,4.09,5,.74-2.2,2.14-2.17,3.47-1.81.5.13.82.93,1.13,1.31-.69,1.2-2.41.68-2.25,2.28l4.47,1.29-1.87.92c.11.59.23,1.3.34,1.9l4.77,3.14-.17.71c-1.05.18-2.11.35-3.4.55l-.81,2c-.56-1.16-1-2-1.36-2.79l-.51.15c.13,1.25.26,2.5.42,4,3.12,1,6.28-1.05,9.55-.08-1.13,1.88-3.15,1.88-5,2.7a3.35,3.35,0,0,0,1.28.32,20.8,20.8,0,0,0,2.67-.76c1.85-.59,1.85-.6,3.05,1.16l2.3-1-1.13,2.73c.71.21,1.31.43,1.93.57a1.44,1.44,0,0,1-.5,2.82c-2.22-.3-4.16.49-6.22,1.49,1.59,1.44,3.31,2.32,5.37,1.95a2.6,2.6,0,0,1,3.18,1.6c1.51-.64,1.42-1.81,1.33-2.93l5.62.88c-.51.94-1,1.85-1.65,3.09a4.76,4.76,0,0,1,4.53,1.84c.35.46,1.62.21,2.59.29,2,2.69,1.91,3.27-.83,5.22l3.19-.3c.63,1.64,2,1.32,3.38,1.65,1.77.43,1.52-2.11,3.2-1.49.16.67.36,1.44.59,2.38l8.28.76c-1,1.27-2.79-.4-2.79,1.83.8.06,1.79.42,2.51.12,1.47-.61,2.27-.14,2.8,1.22.83-.82,1.45-1.9,2.29-2.12s1.85.47,3.16.87c-.2-1.77-.38-3.49-.57-5.21l3.48-2.09a3.89,3.89,0,0,0,3.75,2.65c-.1,1.94-2,.9-2.86,1.9l.78,2.31a5.45,5.45,0,0,0,1.51-.73,2.21,2.21,0,0,1,3.18-.38,3.18,3.18,0,0,0,3.19-.32c1.48-1.14,3-.76,3.63,1,.2.51.18,1.11.41,1.58a2.62,2.62,0,0,0,2.7,1.62c.84-.13,1.58-.89,2.93-1.7l-1.31,2,2.83,1.23c.11-1.2.19-2,.29-3l2.52.57v3.19a9.65,9.65,0,0,0,1.4-1.37c1.16-1.81,1.88-2.22,3.51-1.33a3.86,3.86,0,0,1,1.38,2.4c.73.31,1.44.68,2.2.92.59.18,1.55.51,1.81.25,1.86-1.94,4.06-.3,6.18-.89l.7,2.45,2.28-.6a9,9,0,0,1-1,2.5,1.45,1.45,0,0,0,.16,2.35c.78.69,1.62,1.3,2.62,2.09a2.47,2.47,0,0,1,3.55-.2c.4.32,1.69,0,2.23-.41,2.92-2.33,3.92-2.19,5.45,1.12,1.46-.92,1.64-2.43,1.81-4.17l2.08,2.61c1.4-.2,1.8-2.48,3.78-1l-1.92,2.51,4.7.26c-.85,2-2.94-.82-3.71,1.36,1.43.19,2.47,1.94,4.17.81.93.69,2.61,1.33,2.65,2.07.16,2.66,2.26,3,4.15,4.39l1-1.95,2,2.15c3.16-1.82,5.19-1.53,8.55,1.13l-2.06,3.34c2,.49,1.92-1.17,2.57-2.11l3.05,1.33,1.95-1.59c1.64,1.08,3.34,2.13,5,3.32.25.18,0,1,0,1.48a12.19,12.19,0,0,1,2.23-.76c1.93-.3,2-.31,1.8-2.23a2.64,2.64,0,0,1,.08-1.27c1,1.21-.22,3.2,1.43,4.1,1.35.73,2.78,1.31,4.43,2.08l.42,1.57c1.67-.36,1.52-1.62,1.39-3.19,1.23,1.44,2.24,2.57,4.09,2.39.62-.06,1.32.77,2.11,1.27a23.52,23.52,0,0,1,2.51-.41c3-.21,3-.2,3.94-3.15l1.09,1.46c.32-.7.61-1.3.85-1.92s.4-1.22.59-1.81l1.51,1.73.39-.19-1.3-4c2-1.51,1.61,2.62,3.58,1.14a4.31,4.31,0,0,1-.26-.66c-.09-.38-.13-.76-.19-1.14.42,0,1-.27,1.24-.09a16.78,16.78,0,0,1,1.95,1.71c1.39-1.57,3.45-2.14,4.16-4.51.66,2.26.66,2.26,2.21,3,.18-.17.45-.31.57-.53a3.17,3.17,0,0,1,4.37-1.65c.87.31,2-.13,3.49-.28l.5,1c.47-.41.82-.56.85-.76a4,4,0,0,1,2.24-2.87c1.08-.67,1.68-2.12,2.47-3.2l2.6-.48c0,.37.06,1,.1,1.72.23,0,.49,0,.52-.06.79-2.12,2.54-2.36,4.44-2.24.2-3,.61-5.87,2.85-8.15.48-.5.5-1.44.77-2.28h3.4c1-3.07,2-6.13,3-9.19.08-.25.25-.63.43-.66,1.66-.29,1.67-2,2.68-3.44l.17,2.66.51.05q.59-2.91,1.16-5.8l-.09.07a9,9,0,0,0,1.87-1.08c.58-.55,1-.94,1.89-.55,1.07.47,1.16-.46,1.41-1.28L636.9,452a7.83,7.83,0,0,0,3.37-6.06c.25,1.11.54,2.22.74,3.34a2,2,0,0,1-.11,1.35c-2.17,2.54-2.79,5.85-4.43,8.65a3.71,3.71,0,0,1-1.23,1.44c-1.9,1-2.55,2.57-2.77,4.59-.28,2.63-.78,5.24-1.21,8.05l-1.1-.73-1.13.88-.44-.22.77-2.5c-2.64.72-3.84,2.91-2.67,5.52a5.56,5.56,0,0,1-2,6.18c-.16.09-.47.1-.49.21-.6,2.41-3,3.06-4.39,4.66-.9,1-1.11,2.66-1.52,4.06a14.24,14.24,0,0,0-.18,2.58l-1.3-2.1c-1.31,2.9-4,4.25-5.59,6.66a2.53,2.53,0,0,1-1.85,1.08c-2.09-.18-2.9,1.32-3.93,2.59-.34.42-.7,1.24-1,1.22-1.93-.15-2.5,1.55-3.68,2.42-1.68,1.25-3.37,2.6-5.78,1.86a2.43,2.43,0,0,0-3.16,1.52,11.35,11.35,0,0,1-1.3,2.13c-.32.42-.91,1.05-1.24,1-2.8-.61-3.79,2.3-5.94,2.95-.6.19-1,1-1.7,1.81-2.64-.68-4.93,0-6.12,3.36L574,518.78a11.59,11.59,0,0,0-4.7,2.26c-1.34,1.19-2.93,2.06-3.85,3.72a1.31,1.31,0,0,1-.86.64c-2.94.05-3.51,2.62-4.58,4.46a90.7,90.7,0,0,0-5.57,10.77c-1.11,2.69-2.74,5.13-3.37,8.09s-2,5.47-3,8.23-1.85,5.56-2.8,8.34a10.5,10.5,0,0,1-1.48,3,23,23,0,0,1,.72-4.35c1-2.55.15-4.24-2-5.54a5,5,0,0,1-.73-.67l-1.58.82-1.57,5.05c-.54-.9-.85-1.43-1.22-2.06a14.47,14.47,0,0,1-5,3.39c-1.37.46-3.87.85-3.29,3.71-1.19-.3-2.24-1.33-3.11.07-.12.18-.78.08-1.17,0a18,18,0,0,1-2-.74l1.19,2.28c-.62,1.69-2,1.06-3.16.93l-1.78,2.44-2.29-1.72,1.84-.56c-.44-2.6-3.44-1.95-4.4-3.81l-3.35,1.33c-.4-3.35-3.62-3.84-5.72-5.53-.09-.08-.57.32-.93.52l2.22,5.84-2.54-.73,0,.06c-.49-.67-1-1.33-1.48-2h2.15c-1.19-1-1.19-1-2,.06-3,1.13-3,1.13-5.05-1.28-1.1-1.28-1.88-1.22-3,.18a8.43,8.43,0,0,1-1.09.9c-1.19-1-2.39-1.8-2-3.63.33-1.42,1.48-1,2.48-1,0-1.56-1.39-1.68-2.06-2.79l-1.34,1.94L485,557.12l-.28,2.21c-.27,0-.48.1-.58,0-1.05-.74-2.08-1.51-3.13-2.25-.3-.21-.74-.28-1-.55-.63-.77-1-1.82-1.81-2.37s-1.76-.39-2.64-.64c-.3-.09-.73-.4-.77-.65-.29-2-1.58-2.24-3.27-1.68-.82-1.74-2.88-2.54-2.75-4.7-1.14-.44-2.26-1-3.43-1.3a6.07,6.07,0,0,0-1.93.11l-1.29-2.7-1.08,1.49a7.36,7.36,0,0,0-5.56-2.59C457.65,543.8,459.87,545.64,463.07,545.76ZM386.63,433.51l5.25,4.08c1.58-3.36,1.36-3.7-3.4-5.59Zm160,118.34c-2.62,3.19-2.78,4.74-1.08,7.25,1.39-1.51.5-3.15.15-4.8l1.91.49ZM403.58,445.58c-.31-2.28-1.08-2.74-3.58-2.24V446Zm146.63,90.58c-2.4,1.66-2.45,3.07-.41,4.67C551,539.46,550.65,538,550.21,536.16ZM392.13,427.56l6.2,1.06C397,426.47,395.29,426.17,392.13,427.56Zm200.31,64.36c-.51.69-1,1.71-1.25,1.65-1-.24-1.42-.16-1.43,1l2.65,1.24C592.86,494.51,593.65,493.38,592.44,491.92ZM392.62,450.19c-.28.84-.49,1.5-.73,2.14-.45,1.19.35,1.36,1.14,1.59C394.54,451.69,394.54,451.69,392.62,450.19Zm-9.38-34.67-.55-.61L380,416.64l2.18,1.08C382.57,416.88,382.91,416.2,383.24,415.52Zm11.76,26c-.69,2.11-.65,2.15,1.64,2.47Zm123.91,42.16c1.32-1.88,1.32-1.88-.26-2.7C518.73,481.73,518.8,482.51,518.91,483.64Zm-75.4,43.29-.73-.2-1,2.57C442.84,528.74,444.07,528.25,443.51,526.93ZM499,472l-2.15,2h3Zm56.71,61.73-2.87,2.05,1.88.73C555.06,535.65,555.31,535,555.72,533.77ZM397.36,456c.42.17.72.41,1,.39A9.4,9.4,0,0,0,400,456C398.59,455.28,398.59,455.28,397.36,456Zm21.91-1.1c1.17.94,1.27.91,2.84-.81Zm129.46,91.48c-1.27,1.34-1,1.89-.2,2.3.18.09.48-.08.73-.13Zm-26.67,18.29c-.13-1.88-.13-1.88-2.14-1.59Zm-83-36.08.72-1.54h-2.16ZM550.13,544c1.58-.31,1.58-.31,1.47-1.71a11.46,11.46,0,0,0-1.33,1C550.12,543.4,550.17,543.74,550.13,544ZM408,472l-.51.55c.36.25.71.52,1.09.75a1.43,1.43,0,0,0,.3-.35C408.56,472.64,408.26,472.33,408,472Zm148.79,59.43-.67-.3-.63,1.15.7.37Zm-99.4,8.08.51-.19c-.16-.43-.33-.86-.49-1.3l-.5.19Zm127.72-27.11-.66-.56a4.26,4.26,0,0,0-.58.78c0,.09.4.5.45.47A5.61,5.61,0,0,0,585.07,512.42ZM474.28,547.19a3.59,3.59,0,0,0-.81-.73c-.1-.05-.37.26-.56.41a3.66,3.66,0,0,0,.63.72C473.62,547.64,473.92,547.39,474.28,547.19Z" transform="translate(0 -18.73)"/><path d="M637.66,205.94c.06-.45,0-1.15.21-1.3,2.27-1.42,1.64-3.52,1.21-5.42-.54-2.4-.68-4.94-2.16-7.09a5.77,5.77,0,0,1-.45-1.87c-1-4.3-2.1-8.57-2.79-12.92-.49-3.07-1.59-6-1.9-9.05a41.83,41.83,0,0,0-3-11,6.12,6.12,0,0,1-.17-1.56,2.11,2.11,0,0,0-.15-.89c-.31-.5-.92-.87-1.08-1.4-.88-2.88-1.66-5.79-2.47-8.69,0-.07.08-.16.13-.24l3.41-1a10.94,10.94,0,0,0-2.6-1.34c-2.73-.47-3.32-2.4-3.74-4.74,2.19-.28.68,1.55,1.64,2.12.67-.53,1.41-1.13,2.19-1.77,1.81.78,3.56,2.06,6,1.11,0-.59.14-1.35-.16-1.76a51.67,51.67,0,0,0-4.09-5.13c-.73-.79-.81-1.34-.27-2h4.73c-.66,2.57,1.38,3.22,2.85,4.13s3.34,1.54,4.92,2.46a3.38,3.38,0,0,1,1,1.76c.32.9.84,1.64,1.81,1.25.4-.16.69-1.25.57-1.83a32.55,32.55,0,0,0-1.35-3.94l6.49,1.2-.73,1.56c-.3-.59-.57-1.09-.83-1.59l-.9.68c.66,1.35,1.33,2.69,2.23,4.53.68-2.79,1.2-5.1,1.83-7.37a3.89,3.89,0,0,1,1-1.57c1.44-1.41,2.11-3.44,1-4.9-1-1.24-.66-2.12.3-3.48l-2.6.46c0-.21-.09-.41-.14-.62l3.35-.45v-7.19c1,.44,1.66.54,1.82.89,1.33,2.82,4.15,4.66,5.4,7.47a32.46,32.46,0,0,1,1.42,5.29c.09.35-.1.81.06,1.1,2.12,3.61,1.17,7.66,1.85,11.48a3,3,0,0,0,.86,1.71c2,1.65,2.51,4.09,3.74,6.13a2.83,2.83,0,0,1,.18,2.53c-.4.55-1.65.57-2.55.71-.34,0-.72-.24-1.1-.3-1.52-.25-2.45.38-2.44,1.91,0,3.2.39,6.41.18,9.59-.11,1.58.49,3.23-.92,4.94-1.23,1.47-.48,3.68,1.31,5-.9,1.77-2.65,1.53-4.25,2.07,1.31,1.62,1.88,3.19.92,5.3-.6,1.32,0,3.12-1.66,4.18-.15.1.29,1,.45,1.6l1.83-1.22,2.57,2.81c-1.11,1.53-.91,3.08-.71,4.78.36,3,.22,6.11.38,9.17a40.7,40.7,0,0,0,.72,7.91,5.15,5.15,0,0,1-.65,4.37c1.24,2.86,1.24,2.86-1.21,3.66,0,3,.08,6,0,9-.09,2.16-.45,4.31-.7,6.46-.1.81-.26,1.62-.41,2.43a4.09,4.09,0,0,1-.36,1.51c-1,1.56-1.06,1.54.3,3.67V239h2.88c-2.41,3.22-4.69,6.29-7,9.34-.09.13-.46,0-1,.07l1.23-1.89c-.4-.45-1-.85-1.09-1.33s.52-.89.9-1.26.93-.59,1.34-1c.83-.76.25-1.29-.43-1.86-1.74,2.58-4.07,4.94-2.37,8.74-.54.87-1.23,1.95-1.89,3-.29.47-.82,1-.73,1.45.64,2.88-1.93,4.12-3,6.12-.11.19-.47.24-1.08.54a26.41,26.41,0,0,1-1.12-3.27c-.61-3.06-1.1-6.14-1.65-9.22-.34-1.89-.69-3.77-1.05-5.66a22.16,22.16,0,0,0-.57-2.69c-.31-1-.71-1.84.14-2.83a1.7,1.7,0,0,0-.43-2.47c-1.13-1-1.87-1.86-1.66-3.51a2.14,2.14,0,0,0-1.8-2.18,4.45,4.45,0,0,1-3-2.88c-1.13-2.7-3.67-3.69-6.55-3a9.21,9.21,0,0,1-3,.31,16.53,16.53,0,0,0-7.75,1.39c-1.2.5-1.39,2.25-3.11,2.33a46.92,46.92,0,0,0-6.2.95c-.7.13-1.67-.48-2.09.73-.07.21-1.05.26-1.52.11a10.14,10.14,0,0,1-1.94-1,4.78,4.78,0,0,1-6.41,2.3c-.14.83-.27,1.6-.44,2.65l-2.52-.28v2a4,4,0,0,1-.69-.48c-.49-.53-.86-1.27-1.46-1.6a3.17,3.17,0,0,0-2.24-.43c-.88.3-1,1.24-.51,2.12,0,.1-.12.3-.34.86-.74-1.09-1.36-2-2-2.93-1.67-.3-3.21-.19-3.69,1.88-4-1-4.6-1.49-4.78-5.72,0-1,.83-2,1.19-3,.22-.65.58-1.52.33-2-1-2.12-.52-3.68,1.26-5.09a8.57,8.57,0,0,0,1.33-2.18l1.85,2.86c.89-.85,1.65-1.5.57-2.58-.75-.75-.58-1.43.11-2.13s1.6-1.73,2.4-2.6a3,3,0,0,1-.59,2.41c2.26.22,2.6-1.59,3.21-2.77,2.82-1,5.43-2.09,8.13-2.85a62,62,0,0,1,6.42-1.14,6.64,6.64,0,0,1,2-.32c.51.09.91.9,1.41,1a6,6,0,0,0,4.25-.7,5.11,5.11,0,0,1,3.33-.81c2.14.38,4.37.9,5.64,3.55.35-1,.58-1.75.81-2.46,1.55.46,1.55.46,2.94,2.92-.13-1.32-.2-2.06-.29-3a7.45,7.45,0,0,1,.78.62c2,2.44,1.92,2.37,4.62,1.1.71-.33,1.71,0,2.73,0,.61-.42.85-1.77,2.32-1.21.27.1,1.13-1.37,1.72-2.11a3.86,3.86,0,0,1-1.38,3.38c-.77.79-1.21,1.65-.41,2.32l4.88-5.61ZM656,144.22c.46-3.2,0-4.71-2-6.53-.36,1.72-.71,3.36-1.09,5.13Zm-1.6,35.26c.53-1.31,1-2.42,1.42-3.58a2.28,2.28,0,0,0,0-1.52c-.54-1.22-1.24-2.37-1.87-3.55C654.34,173.69,652.8,176.62,654.43,179.48Zm-1.52-33.26c.33,1.95.61,3.58,1,5.68,1.13-2.07,1.63-6.22.88-6.77ZM639.4,228.05l.31-.26c-.15-.29-.22-.69-.45-.85a2.94,2.94,0,0,0-1.06-.24l-.16.41Zm2.46,1.56.72-1a2.4,2.4,0,0,0-.79-.44c-.16,0-.53.34-.5.47A3.5,3.5,0,0,0,641.86,229.61Zm21.49-83.28.31.35,1.41-.8-.19-.36Z" transform="translate(0 -18.73)"/><path d="M518.86,358.48l1-1.2c-2.17-1.72-2.48-3-.76-5.09l-.65,1.95c1.51.94,3.2,1.71,3.85,3.68.15.44,1.37.52,2.23.81l.67,2.83,1.61-2.82,2.84.15.15-.48-2.42-1.3c1.7-.27,3-.38,4.12,1.06,1.27-.92,3.2-.47,3.74-2.41,2.52-.11,4.32-2,6.64-2.68,2.49-.69,5-1.53,7.46-2.14s4.89-1,7.58-1.47c-.29-.5-.56-1-.83-1.46,1.58-.44,1.58-.44,2.07,1.45.5,0,1-.1,1.54-.12a1.64,1.64,0,0,0,1.25-.45l-1.69-.26c0-2,.28-2.33,1.77-2a7.91,7.91,0,0,0,5.15-.39c1.46-.66,1.9.61,2.65,1.39l1.91-.52c1.17,1.35,1.85,3.39,4.46,3a1.7,1.7,0,0,0,.4-.62c.31-1.22,1-1.4,2.07-.89.63.29,1.4.27,2,.53a3.26,3.26,0,0,0,4.33-1.28c2.22-.21,4.2,0,5.8-.65,2.44-1,4.3-.41,6.21.95.13.09.35.06.83.14l3.47-3.83c1.48,1.58,3-.2,4.69-.71l.12.53-4.66,1.54.08.57c1.43-.12,2.86-.21,4.28-.39s3.07-.49,4.78-.77c1,.8,2.08,1.83,3.3,2.72s2.43,1.53,3.72,2.34l-2.56,4.35-2.35.32c.1.3.11.56.22.62.92.5,2.3.45,2.49,1.84.17,1.2-1.45,4.14-2.51,4.49-2.86.95-5.56,2.25-8.84,1.45s-7-.12-10.44,0a11.32,11.32,0,0,0-4,1.2c-1.92.86-3.7,2.05-5.66,2.79-1.14.42-2.5.23-4,.33-1.2,2.14-3.07,2.34-5.63,1.66-3.5-.92-3.55-.7-5.9-2.13a6,6,0,0,0-1.8-.53,33.68,33.68,0,0,0-5.91-1.31c-2.24-.11-4.67-1.5-6.78.58-.25.25-1,.16-1.43.06a5.28,5.28,0,0,0-3.9.41,17.45,17.45,0,0,1-7.16,1.95c-2.29.15-4.54.78-6.82.94-3.36.24-6.63,0-9-2.92-.62-.76-1.68-1.14-2.38-1.85A12.41,12.41,0,0,1,518.86,358.48Zm20.1-3.19-.53.36c.05.53.1,1.07.16,1.79l1.39-.79Z" transform="translate(0 -18.73)"/><path d="M526.63,405.52c.37.4.73.83,1.12,1.21,1.22,1.22,1.67,1.33,2.65,0a2.62,2.62,0,0,1,3.16-1,10.82,10.82,0,0,0,3,.74,29.5,29.5,0,0,0,6.43-.83,26.51,26.51,0,0,1,6.79-1.44c.78,0,1.54-.86,2.46-1.42l2.17,1.47c1,.06,1.61-1.75,3-.72.25.19,1.21-.51,1.8-.86.86-.51.85-.53,2.2.9l-2.51.4a2.11,2.11,0,0,0,.18.73,1.88,1.88,0,0,0,2.87.47,9.37,9.37,0,0,0,1.17-1.09l7.17,2.66c1.08-2.1,3.06-1.62,4.37-1.29,2.92.73,5.47-.12,8.1-.91,3.71-1.12,7.4-2.21,11.37-1.41,1.6.32,2.22-.38,2.62-2.16.11-.47.47-1.13.85-1.25,1-.28,2.08-.09,3-.48,1.37-.58,1.72.8,2.63,1.06l4.32-1.34c0,.26.1.59.16,1a7.51,7.51,0,0,1,5.65,1.45c1.12-1.67,1.12-1.67.42-2.95l2.52-3.59,2.95,2a10,10,0,0,0,.69-1.79c.6-3.24,3.42-5.32,6.51-4.43,1.18.34,2.44-.09,3.64.82.91.69,2.45.53,3.92.79-1.15,2.46,1.75,3.78,1.76,6.37l-2.82,1.13a9,9,0,0,1-.67,1.29,15.42,15.42,0,0,0-2.25,4,5.72,5.72,0,0,1-3.48,3.66c-1,.37-2,.87-3.22,1.38L622,408.29,618.35,410c-1.59-1.33-1.66-1.42-3.39,0-1.37,1.13-2.2-.3-3.41-.44l-2,1.35-.92-1.58-1.44,1.6-1.61-1.08.77-1c-.28-.27-.42-.49-.55-.49-2.36,0-4.72-.73-7.1.25-.7.29-1.74-.38-2.59-.31a42.7,42.7,0,0,0-6.29.88c-1.35.32-2.95,0-4,1.52-.34.48-1.56.33-2.38.47-8.46,1.53-17,.52-25.54,1.18-5,.39-9.94.31-14.84,1.38-1.92.43-4,0-6,.09a41.9,41.9,0,0,0-9.24,1.44,31.12,31.12,0,0,1-7.83,1.47c-3.28.07-6.69-.55-9.92.9-1.27.57-2.78-.5-4.29.3a3.71,3.71,0,0,0-2.29,2.51l-.66-2.28-1.69,1.59c-2-1.08-1.89-3.51-3.12-4.9.45-1.41,1.22-2.71,1.18-4a6.11,6.11,0,0,0-1.84-3.48c.14-.81.31-1.61.42-2.42s.12-1.41.19-2.34c1.42,1.17.23,2.38.49,3.44,1.71-1.23,2.08-2,1.26-3.72-.57-1.19-.28-2.1.27-3.36l2.88.93a4.46,4.46,0,0,1,3.59-2c1.31,0,2.58-1.26,4-2a10.92,10.92,0,0,1,1,.37c.82.34,1.82.45,1.16,1.9-.19.43.72,1.35,1.21,2.19l2.81-1.4L516,400.9l3.85,3.81-2.85-.8c.53,2,1.3,2.49,3.86,2.6,2.22.1,3.25-.64,4-3.08.67.79,1.24,1.47,1.82,2.14-1.54-.34-2.16,1-3.28,1.58C525.42,408.66,526,408.31,526.63,405.52Z" transform="translate(0 -18.73)"/><path d="M465.27,273.85c-1.85,0-3.72.09-5.57,0a15.57,15.57,0,0,0-8.6,1.72,6.74,6.74,0,0,1-2.65.39c-1.27.08-2.54.12-3.81.1s-1.94.78-2.06,2c-3.71.24-7.38,2-10.93-.25a18.89,18.89,0,0,1,4.75-3.85,26,26,0,0,0,4.51-2.48c.54-.39.58-1.47.78-2.05,1.07-.51,2.05-.91,2.94-1.44,2.95-1.74,5.75-3.78,8.84-5.21,2.59-1.2,4.95-3.18,8-3.1a.37.37,0,0,0,.26,0c2.63-2.17,6.12-1.85,9.07-3.15a26.73,26.73,0,0,1,4.83-1.24c4.41-1,8.79-2.22,13.25-3a96.13,96.13,0,0,1,10.49-.87c.59,0,1.2.46,1.82.61,1.05.26,2.15.38,3.19.67a11.81,11.81,0,0,1,2.51,1c1.61.87,3.1,2,5.11,1.71a2.93,2.93,0,0,1,1.68.65,28.15,28.15,0,0,1,2.19,1.81l.26-1.26,3.46,1.47c-.08.81-.19,2-.33,3.58l-2.66.77,0,.35,3.66.48-1.78,1.58c.41,1.58,1.57,2,3.18,1.89L520,269.78a10.49,10.49,0,0,1-6.46-1,4.53,4.53,0,0,0-2.87-.18,2.12,2.12,0,0,1-2.47-1l1.12-.89c-2.33-.2-3.42,2-5.18,2.38s-3.47.09-5.76.09a16.32,16.32,0,0,1,2.93-1.89c1.05-.37,2-.7,1.89-2a2.86,2.86,0,0,0-2.23-2.56c-1.6-.46-3.24-.74-4.85-1.16a5.15,5.15,0,0,1-2-.83c-1.69-1.38-3.55-.61-5.32-.52-.92,0-1.25.94-1.28,1.88-.07,2.1-.19,4.2-.31,6.3-.08,1.52-2.37,4.1-4.32,4.13-4.61.09-9.2,1.52-13.82.27-1.23-.33-2.42-.81-3.57-1.2-.08.62-.2,1.48-.31,2.34Zm45.53-17.09-.18.59,2.94,1.3C513.53,256.22,511.66,257.51,510.8,256.76Z" transform="translate(0 -18.73)"/><path d="M623.9,256.86c-.84-2.64-1.77-5.58-2.69-8.49-.83-.42-1.88-1.3-2.26-1.07-1.8,1.1-3.21-1.53-4.92-.32-.93,2.62-1.74,5.31-2.86,7.87a20.64,20.64,0,0,1-2.71,4.14,2.26,2.26,0,0,1-1.47.69,33,33,0,0,1-4.1.14c-2.38-.07-4.76-.22-7.13-.36a17.17,17.17,0,0,0-7.55,1.56c-1.54.64-2.87.71-4.13-.4-.84-.75-1-3.26-.33-4.52a5.63,5.63,0,0,0,.9-4c-.22-1.17.43-2.08,1.64-2.94,0,.79-.07,1.28-.11,2.22l5.11-4.5a4.61,4.61,0,0,1,1.25-1c3.4-1.2,6.77-2.52,10.26-3.41a39,39,0,0,1,8.73-.73c5.64-.15,11,1.25,16.43,2.1,2.64.41,5.63.9,7.81,3.07.44.44,1.38.37,2.29.59,0,.67-1,1.92,1.21,2.1,1.58.12,1.93,2.7.82,4-.5.6-1.29,1.36-1.22,2,.35,3.06-1.4,4.67-3.73,6-.16.09-.39.17-.45.31-1.17,2.88-3.58,2-5.83,2.22-2.65.28-4.29-1-6.17-2.34a12.77,12.77,0,0,0-3-1c-.53-.19-1.39-.39-1.47-.73-.25-1,.69-1.1,1.41-1.25C621,258.5,622.72,259.24,623.9,256.86Z" transform="translate(0 -18.73)"/><path d="M672.19,185.58c-1.72.58-2.42,1.39-1.79,3.19-1.17-.78-2-1.8-1-2.51,1.54-1,1.26-2.26,1.18-3.61,0-.46,0-.92,0-1.53a4.22,4.22,0,0,0,3-3.2,13.16,13.16,0,0,1,.19,2.33,115.39,115.39,0,0,0,.05,16.63c.34,5.71-.15,11.46-.27,17.2-.05,2.32,0,4.64-.12,7-.17,3.33-2.22,5.79-4.14,8.27-.2.25-.85.13-1.28.24-1.6.4-1.7.71-1,2.09l-3.85,5.72c-1-.29-1.2-.87-.7-1.68.85-1.42,1.79-2.8,2.6-4.24.5-.87.8-1.84,1.24-2.75.26-.55.63-1.05.94-1.58.22-.37.61-.75.6-1.13a8.26,8.26,0,0,1,2.72-6.35,2.69,2.69,0,0,0,.43-.71,1.84,1.84,0,0,0,.06-.47c-1.66-1.18-1.43-2.87-1.28-4.82a42.23,42.23,0,0,1,2.09-9.66l.71,2.13A2.76,2.76,0,0,0,673,203c-1-2.6-1.67-5.17-.78-8a4.58,4.58,0,0,0-.28-3.26C670.81,189.7,671.12,187.8,672.19,185.58Z" transform="translate(0 -18.73)"/><path d="M378.19,406.56c-.59-1.43-1.34-2.77-.78-4.48.19-.58-.46-1.42-.8-2.36l1.64-.43c.31-1,.62-2.09.94-3.15l.55.13c-.25,1.89-.49,3.77-.82,6.27,1.06-1.45,1.55-2.74,2.47-3.2s2.27-.11,3.54-.11c.18-1,.33-1.74.52-2.79l3.55,2.19v3.12c-.84-.56-1.47-1.25-2.2-1.38s-1.38.41-2.51.8l4.8,3.31a8.07,8.07,0,0,1-5.27,1.71c-2.42.05-2.42.07-3.49,2.32L378,406.6Zm3.23-2.55c2.64.92,2.64.92,3.12-.51Z" transform="translate(0 -18.73)"/><path d="M494.87,21.5c.85-.35,1.4-.41,1.68-.72,2.36-2.59,5.38-2.17,8.28-1.7a89.08,89.08,0,0,1,10,2.36c-9.69.91-18.85,4.61-28.7,5.14.2-1.24,1.11-1.25,1.87-1.39,3.44-.65,6.92-1.14,10.34-1.93a40.8,40.8,0,0,0,7.76-2.75C502.44,20.63,499,22.85,494.87,21.5Z" transform="translate(0 -18.73)"/><path d="M484.33,49.61c2-.92,3.91-1.92,5.91-2.76,2.54-1.06,5.14-2,7.7-3a2.8,2.8,0,0,0,1.34-.9c1-1.76,2.82-2,4.53-2.32a50.67,50.67,0,0,0,7-1.6c3.6-1.36,7.38-1.65,11.09-2.31a31.29,31.29,0,0,1,5.11-.44,82.87,82.87,0,0,0-15.29,3.83c-1.64.61-3.41.87-5.06,1.46-2.68,1-5.33,2-8,3.08-4.33,1.75-8.65,3.53-13,5.29a6.93,6.93,0,0,1-1,.26Z" transform="translate(0 -18.73)"/><path d="M535.32,26.35c-2.83,2.11-6.08,1.82-8.93,2.8s-5.88,1.66-8.81,2.55-5.61,1.92-8.46,2.74-5.86,1.48-8.79,2.21l-.21-.53c.23-.17.44-.43.7-.49,7.11-1.74,13.87-4.52,20.75-7a43.13,43.13,0,0,1,7.59-1.44C531.05,26.9,533,26.68,535.32,26.35Z" transform="translate(0 -18.73)"/><path d="M592.16,132.12c4.36-.52,8.74-.94,13.09-1.58,3-.45,6-1.15,9-1.84,1.85-.44,3.64-1.11,5.47-1.61.22,0,.57.37,1.35.9C611.33,131,601.94,132.75,592.16,132.12Z" transform="translate(0 -18.73)"/><path d="M523.76,49A78.68,78.68,0,0,1,536,45.64c2.19-.46,4.54,0,6.66-1.42.94-.62,2.61-.11,4.34-.11-.43.56-.6,1-.83,1a12.64,12.64,0,0,0-2.8.32,9.06,9.06,0,0,1-2.86.59c-2.34.22-4.63,1-7,1.43-3.25.56-6.52.95-9.79,1.4C523.7,48.89,523.76,49,523.76,49Z" transform="translate(0 -18.73)"/><path d="M668.9,155c2.91,6.58,3.78,10.56,3.13,13.84l-2.24-3.2c1.51-1.41,1.31-1.27.1-3a14.09,14.09,0,0,1-1.88-4.81C667.84,157.11,668.5,156.2,668.9,155Z" transform="translate(0 -18.73)"/><path d="M625.49,130.14l-4.28-3.09c.64-.77,1-1.74,1.74-2,3.48-1.55,7-2.94,11-4.57a7.21,7.21,0,0,1-3.7,2.58c-2.31.67-4.88,1.74-6.12,4.49l1.68,2.26Z" transform="translate(0 -18.73)"/><path d="M538.53,27.85c7.22-1.19,14.36-3.19,21.84-1.85l-21.82,2.4Z" transform="translate(0 -18.73)"/><path d="M518.89,55.18c2-1.72,3.72-2,6.49-1l-1.55,2.11a3.89,3.89,0,0,0-.39.28c-1.8-.46-2.94.41-3.68,1.94a2.94,2.94,0,0,1-1.41-2.93Z" transform="translate(0 -18.73)"/><path d="M439.82,459.7a10.31,10.31,0,0,0-2,1c-1.37,1.15-2.52,1.18-3.71,0s-.16-2.07.34-3,1.4-.85,2.16-.34C437.68,458,438.65,458.82,439.82,459.7Z" transform="translate(0 -18.73)"/><path d="M561.63,34.3c-.19-.31-.42-.89-.57-.87a30.43,30.43,0,0,0-4.58.78c-1.45.42-2.67,1.31-4.27,0-.71-.61-2.26-.23-3.47-.31,3-.48,5.86-1,8.79-1.4a48.55,48.55,0,0,1,5.19,0l-1.13,1.81Z" transform="translate(0 -18.73)"/><path d="M462.68,545.5c-3.19-.12-5.41-2-7.57-4.22a7.37,7.37,0,0,1,5.56,2.58l1.07-1.48,1.3,2.69A4.82,4.82,0,0,1,462.68,545.5Z" transform="translate(0 -18.73)"/><path d="M478,44.48l-3.52.42c-1.66-3.36-4.06-.74-6.57-.43.35-.72.44-1.27.76-1.51,2-1.47,3.48-1.39,5.65,0A28.62,28.62,0,0,0,478,44.48Z" transform="translate(0 -18.73)"/><path d="M453.92,460.85l1.29,2.79c-.26.17-.69.7-1.15.74a16.49,16.49,0,0,1-4.89-.36Z" transform="translate(0 -18.73)"/><path d="M495.36,39.48c-1.73,2.35-4.6,1.17-7.16,2.68,1-2.37,2.6-2.69,4.14-3.1C493.35,38.79,494.45,38,495.36,39.48Z" transform="translate(0 -18.73)"/><path d="M593.73,58c2.61-1.4,4.48-.74,6.17,2.26C597.78,59.33,595.32,60.09,593.73,58Z" transform="translate(0 -18.73)"/><path d="M408.93,496a7.46,7.46,0,0,1-1.41-.8,6.48,6.48,0,0,0-3.51-2c-1.47-.22-1.56-1.31-.68-2.51l2.78.88,2.75,4.55Z" transform="translate(0 -18.73)"/><path d="M520.93,48.36c1.79-1.11,3.53-2.33,5.4-3.29a11.23,11.23,0,0,1,3.07-.62l.19.54c-2.18,1.13-4.32,2.32-6.55,3.33-.59.28-1.43,0-2.17,0Z" transform="translate(0 -18.73)"/><path d="M447.6,40.44a7.62,7.62,0,0,1,4.86-1.66c1.58,0,3.17-.44,4.82-.41a19.77,19.77,0,0,0-4.49,1.41C451.22,40.71,449.76,40.62,447.6,40.44Z" transform="translate(0 -18.73)"/><path d="M518.94,34l11.72-2.81C528.92,32.72,523,34.24,518.94,34Z" transform="translate(0 -18.73)"/><path d="M490.4,563.69c-.31,1.14-.5,1.82-.65,2.4l-5-3C487,561,488.3,563.88,490.4,563.69Z" transform="translate(0 -18.73)"/><path d="M510.47,24.64,501,26.77l-.14-.58,9.53-2.32Z" transform="translate(0 -18.73)"/><path d="M538,49.13c-1.32,1.75-2.53,2-6.63,1.14l6.4-1.73Z" transform="translate(0 -18.73)"/><path d="M613.55,83.07a12.71,12.71,0,0,1,.34-3.31,6.11,6.11,0,0,0,.47-2.86c-.1-1.34.61-1.83,2.11-1C615.54,78.19,614.62,80.46,613.55,83.07Z" transform="translate(0 -18.73)"/><path d="M517.55,213.86c1.45,1.61,3.92.63,4.51,3C519.15,217.62,518.65,217.33,517.55,213.86Z" transform="translate(0 -18.73)"/><path d="M532.79,41.87c2.84-1,5.4.6,8.12.75C538.08,43.58,535.52,41.91,532.79,41.87Z" transform="translate(0 -18.73)"/><path d="M482.61,35.27l8.13-2A10.09,10.09,0,0,1,482.61,35.27Z" transform="translate(0 -18.73)"/><path d="M378.65,406.56l-.15,0c-.12.35-.13.9-.36,1a23.58,23.58,0,0,1-2.48.89l.07.07a6,6,0,0,1-.31-1.59c.14-1.61.88-1.91,2.32-1Z" transform="translate(0 -18.73)"/><path d="M499.86,281.73l-1,1.78,1.64,1.06-3.21,1.08C497.29,283,497.51,282.65,499.86,281.73Z" transform="translate(0 -18.73)"/><path d="M486.8,42.78c-.58.85-.8,1.48-1.24,1.75a6,6,0,0,1-4.69.08Z" transform="translate(0 -18.73)"/><path d="M387.22,37.55c1.44-1.57,3.27-1.86,5.62-2C391.13,37.66,388.86,36.76,387.22,37.55Z" transform="translate(0 -18.73)"/><path d="M465.18,273.94l3-.23c-.24.9-.42,1.61-.56,2.12-1.32.7-2.15-.13-2.38-2Z" transform="translate(0 -18.73)"/><path d="M608.17,100.92c-.09.58-.14.92-.21,1.33-1.3-1.74-2.44,1.17-3.83-.1C605.08,100.79,606.48,100.84,608.17,100.92Z" transform="translate(0 -18.73)"/><path d="M503.54,568.65c-.28,1.86,1.61,2.11,2.62,3.11-.7.65-1.13,1.06-1.87.37a14.15,14.15,0,0,0-1.83-1.27c.3-.56.71-1.34,1.11-2.14Z" transform="translate(0 -18.73)"/><path d="M503.53,280.91c.73,1.36-.1,1.8-1,2.14s-1.37-.1-1.6-1.13Z" transform="translate(0 -18.73)"/><path d="M582.45,30.66a4.7,4.7,0,0,1-4.68-.66h4.7Z" transform="translate(0 -18.73)"/><path d="M380.31,392.61l2.72.68C381.57,395.28,381.46,395.28,380.31,392.61Z" transform="translate(0 -18.73)"/><path d="M584,490.22c-.55.36-1.09.86-1.22.77a7.4,7.4,0,0,1-1.18-1.31c.38-.31,1-1,1.12-.87A5.62,5.62,0,0,1,584,490.22Z" transform="translate(0 -18.73)"/><path d="M551.75,35.47c-1.6,1.6-3.59,1.34-5.58,1.1Z" transform="translate(0 -18.73)"/><path d="M540.29,32.52a7.59,7.59,0,0,1,6.26-.93l-6.33.87Z" transform="translate(0 -18.73)"/><path d="M384.18,389.46c-.37-1-.64-1.71-.92-2.44.9-.68,1.85-.8,2.08.13C385.49,387.73,384.67,388.55,384.18,389.46Z" transform="translate(0 -18.73)"/><path d="M641.67,254.93c-.68,2.85-.68,2.85-2.4,1.56Z" transform="translate(0 -18.73)"/><path d="M622.67,90.91c-.55,1-.69,2.47-2.36,2.91C620.28,92,621.46,91.43,622.67,90.91Z" transform="translate(0 -18.73)"/><path d="M402.12,32.19l-4.25,1.29-.17-.57L402,31.66Z" transform="translate(0 -18.73)"/><path d="M565.61,36.72c-1.49-.12-2.12-.53-1.93-1.59a1,1,0,0,1,.8-.56C565.59,34.78,565.35,35.69,565.61,36.72Z" transform="translate(0 -18.73)"/><path d="M459.57,54h3.67c-2.08,1.37-2.47,1.34-3.58-.09Z" transform="translate(0 -18.73)"/><path d="M634.89,206.3l-2.29-2.06,3,.18Z" transform="translate(0 -18.73)"/><path d="M607.89,82.68l3.87-.41C611.06,83.73,611.06,83.73,607.89,82.68Z" transform="translate(0 -18.73)"/><path d="M533.52,230l1.43,2.47c-.24.22-.42.52-.61.53a8,8,0,0,1-1.5-.17Z" transform="translate(0 -18.73)"/><path d="M596.65,346.93c-1.07-1.21-.93-1.93.11-2.71C597.79,345.1,597.45,345.84,596.65,346.93Z" transform="translate(0 -18.73)"/><path d="M614.24,74.54,617,72.49C616.75,74.5,616.75,74.5,614.24,74.54Z" transform="translate(0 -18.73)"/><path d="M437.41,47.94c-.23-1.57-.23-1.57,1.32-3.19.54,1.56-1,2.14-1.39,3.25Z" transform="translate(0 -18.73)"/><path d="M479.11,232.66c-.4-.42-1.31-.84-.45-1.47s1.62-.56,1.74.75Z" transform="translate(0 -18.73)"/><path d="M610.08,388.68c-.41-1.27-.68-2.11-1.05-3.24C610.63,386.67,610.63,386.67,610.08,388.68Z" transform="translate(0 -18.73)"/><path d="M496.28,409.07c.6.5,2.07,0,1.59,2.09l-2-1.65Z" transform="translate(0 -18.73)"/><path d="M371.25,386.47c-.47-1.13-1.16-1.94-.17-2.79C371.73,384.84,371.73,384.84,371.25,386.47Z" transform="translate(0 -18.73)"/><path d="M382.57,392l2.92-.78C385.14,393.48,384,392.12,382.57,392Z" transform="translate(0 -18.73)"/><path d="M408.11,30h-3.17a7.52,7.52,0,0,1,0,1h3.15A4.65,4.65,0,0,0,408.11,30Z" transform="translate(0 -18.73)"/><path d="M621.86,257.38l-.48-2,.66-.21.81,2Z" transform="translate(0 -18.73)"/><path d="M553.79,125.84l3.08.3,0,.49-3.06-.21Z" transform="translate(0 -18.73)"/><path d="M547.74,46.25,547.25,44C549.05,44.75,549.05,44.75,547.74,46.25Z" transform="translate(0 -18.73)"/><path d="M633.62,455l.09-.07c-1.05.12-1.49-.33-1.34-1.55C633.58,453.45,634,453.9,633.62,455Z" transform="translate(0 -18.73)"/><path d="M592.44,238.13l-1.63-1.21C592.33,236,592.46,237,592.44,238.13Z" transform="translate(0 -18.73)"/><path d="M390.12,43.31l-2,1.19-.32-.63,2.06-1Z" transform="translate(0 -18.73)"/><path d="M540.22,32.46l-3.68.51,0-.47h3.78Z" transform="translate(0 -18.73)"/><path d="M390.24,464.11c-1.81,0-2-.58-1.8-2Z" transform="translate(0 -18.73)"/><path d="M567.38,35.5,567.9,37l-.67.21c-.15-.52-.29-1-.44-1.55Z" transform="translate(0 -18.73)"/><path d="M429.6,53.38l-1.51,1.69C428,53.92,428,53.92,429.6,53.38Z" transform="translate(0 -18.73)"/><path d="M393.36,412.77c-.3-.4-.62-.8-.9-1.21,0,0,.31-.33.35-.3.41.26.8.57,1.2.86Z" transform="translate(0 -18.73)"/><path d="M539.77,559.49c.78.48,1.17.59,1.28.82a8.32,8.32,0,0,1,.26,1.81c-.56-.56-.81-.71-.93-.94A14,14,0,0,1,539.77,559.49Z" transform="translate(0 -18.73)"/><path d="M508.28,568.08l-1.81-1.29.29-.46c.64.43,1.28.86,1.93,1.28Z" transform="translate(0 -18.73)"/><path d="M648.7,127.78l1.62.19,0,.53a2.68,2.68,0,0,1-1.05.31c-.27,0-.5-.39-.74-.61Z" transform="translate(0 -18.73)"/><path d="M502.25,123.61l1.52,1.11c-1.36.27-1.36.27-1.47-1.17Z" transform="translate(0 -18.73)"/><path d="M561.59,34.24c.33,1.43-.43,1.68-1.75,1.29.61-.4,1.21-.8,1.8-1.22Z" transform="translate(0 -18.73)"/><path d="M332.06,382.33c.1.24.28.48.25.68s-.36.23-.56.34a4.05,4.05,0,0,1-.17-.75C331.58,382.53,331.84,382.45,332.06,382.33Z" transform="translate(0 -18.73)"/><path d="M387.39,409.09c-.37.27-.67.57-.75.52a2,2,0,0,1-.61-.69s.37-.45.49-.42A3.7,3.7,0,0,1,387.39,409.09Z" transform="translate(0 -18.73)"/><path d="M380.36,387.52c.28.38.58.64.53.76a2.91,2.91,0,0,1-.59.74c-.17-.17-.49-.37-.47-.51A3.75,3.75,0,0,1,380.36,387.52Z" transform="translate(0 -18.73)"/><path d="M626.59,671c.56,1.48.56,1.48-1.41,2.08l1.17-1.94Z" transform="translate(0 -18.73)"/><path d="M428.88,62.42l1.23,3.13c1.57,0,3.23-1,4.73.24-1.52,1.85-3.49,1.75-5.68,1.48-.36-1.46-.73-3-1.1-4.5Z" transform="translate(0 -18.73)"/><path d="M491.75,65c.54-2,2.13-1.53,3.67-1.72a3.52,3.52,0,0,1-.26-1.31,5.37,5.37,0,0,1,.76-1.46l2.45,1.86C496.87,64.82,493.71,63.41,491.75,65Z" transform="translate(0 -18.73)"/><path d="M518.89,55.18l-.54.43-3,1.24-.21-.27a24.33,24.33,0,0,1,2.69-2.31C518.72,53.72,519,54.4,518.89,55.18Z" transform="translate(0 -18.73)"/><path d="M571.56,87.24l-1.71-1.18c.66-1.1,1.49-.45,2.49-.17-.3.5-.55.93-.81,1.35Z" transform="translate(0 -18.73)"/><path d="M534.83,67.94l-3,.64-.09-.4,3-.9Z" transform="translate(0 -18.73)"/><path d="M372.65,395.56c.54-.45,1.09-.81,1.53.06a.74.74,0,0,1-.23.7c-.82.38-1.21,0-1.25-.84Z" transform="translate(0 -18.73)"/><path d="M548.94,57h2.31c0-.5,0-.38,0,0H549C549,56.62,549,56.5,548.94,57Z" transform="translate(0 -18.73)"/><path d="M514.84,60c1.24-1.53,1.85-1.41,2.69,0Z" transform="translate(0 -18.73)"/><path d="M555.63,90.1l-2,.55-.12-.35,2-.61Z" transform="translate(0 -18.73)"/><path d="M386.63,433.51l1.85-1.51c4.76,1.89,5,2.23,3.4,5.59Z" transform="translate(0 -18.73)"/><path d="M546.65,551.85l1,2.94-1.91-.49c.35,1.65,1.24,3.29-.15,4.8C543.87,556.59,544,555,546.65,551.85Z" transform="translate(0 -18.73)"/><path d="M403.58,445.58,400,446v-2.66C402.5,442.84,403.27,443.3,403.58,445.58Z" transform="translate(0 -18.73)"/><path d="M550.21,536.16c.44,1.83.76,3.3-.41,4.67C547.76,539.23,547.81,537.82,550.21,536.16Z" transform="translate(0 -18.73)"/><path d="M392.13,427.56c3.16-1.39,4.84-1.09,6.2,1.06Z" transform="translate(0 -18.73)"/><path d="M592.44,491.92c1.21,1.46.42,2.59,0,3.89l-2.65-1.24c0-1.16.48-1.24,1.43-1C591.42,493.63,591.93,492.61,592.44,491.92Z" transform="translate(0 -18.73)"/><path d="M394.19,446.65c2.13.29,2.13.29,3.37,1.63l-5,.37-.22-.48,2-1.56Z" transform="translate(0 -18.73)"/><path d="M392.62,450.19c1.92,1.5,1.92,1.5.41,3.73-.79-.23-1.59-.4-1.14-1.59C392.13,451.69,392.34,451,392.62,450.19Z" transform="translate(0 -18.73)"/><path d="M383.24,415.52c-.33.68-.67,1.36-1.09,2.2L380,416.64l2.72-1.73Z" transform="translate(0 -18.73)"/><path d="M395,441.48l1.64,2.47C394.35,443.63,394.31,443.59,395,441.48Z" transform="translate(0 -18.73)"/><path d="M518.91,483.64c-.11-1.13-.18-1.91-.26-2.7C520.23,481.76,520.23,481.76,518.91,483.64Z" transform="translate(0 -18.73)"/><path d="M443.51,526.93c.56,1.32-.67,1.81-1.78,2.37l1-2.57Z" transform="translate(0 -18.73)"/><path d="M499,472l.85,2h-3Z" transform="translate(0 -18.73)"/><path d="M555.72,533.77c-.41,1.18-.66,1.88-1,2.78l-1.88-.73Z" transform="translate(0 -18.73)"/><path d="M397.36,456c1.23-.67,1.23-.67,2.67,0a9.4,9.4,0,0,1-1.66.38C398.08,456.36,397.78,456.12,397.36,456Z" transform="translate(0 -18.73)"/><path d="M419.27,454.85l2.84-.81C420.54,455.76,420.44,455.79,419.27,454.85Z" transform="translate(0 -18.73)"/><path d="M548.73,546.33l.53,2.17c-.25,0-.55.22-.73.13C547.77,548.22,547.46,547.67,548.73,546.33Z" transform="translate(0 -18.73)"/><path d="M522.06,564.62,519.92,563C521.93,562.74,521.93,562.74,522.06,564.62Z" transform="translate(0 -18.73)"/><path d="M439,528.54,437.59,527h2.16Z" transform="translate(0 -18.73)"/><path d="M550.13,544c0-.27,0-.61.14-.74a11.46,11.46,0,0,1,1.33-1C551.71,543.7,551.71,543.7,550.13,544Z" transform="translate(0 -18.73)"/><path d="M556.75,531.45l-.6,1.22-.7-.37.63-1.15Z" transform="translate(0 -18.73)"/><path d="M457.35,539.53l-.48-1.3.5-.19c.16.44.33.87.49,1.3Z" transform="translate(0 -18.73)"/><path d="M502.13,567.06c.82-1,.82-1,2-.06h-2.05Z" transform="translate(0 -18.73)"/><path d="M585.07,512.42a5.61,5.61,0,0,1-.79.69s-.48-.38-.45-.47a4.26,4.26,0,0,1,.58-.78Z" transform="translate(0 -18.73)"/><path d="M474.28,547.19c-.36.2-.66.45-.74.4a3.66,3.66,0,0,1-.63-.72c.19-.15.46-.46.56-.41A3.59,3.59,0,0,1,474.28,547.19Z" transform="translate(0 -18.73)"/><path d="M637.66,205.85l3.16,0-4.89,5.62c-.8-.67-.36-1.53.41-2.32a3.82,3.82,0,0,0,1.38-3.39Z" transform="translate(0 -18.73)"/><path d="M539,355.29l1,1.36-1.39.79c-.06-.72-.11-1.26-.16-1.79Z" transform="translate(0 -18.73)"/><path d="M526.63,405.52c-.61,2.79-1.21,3.14-3.22,1.63,1.12-.62,1.74-1.92,3.28-1.58Z" transform="translate(0 -18.73)"/><path d="M510.8,256.76c.86.75,2.73-.54,2.76,1.89l-2.94-1.3Z" transform="translate(0 -18.73)"/><path d="M381.42,404l3.12-.51C384.06,404.93,384.06,404.93,381.42,404Z" transform="translate(0 -18.73)"/><path d="M591.84,635.49c.47-.38.94-.78,1.43-1.13,0,0,.47.49.43.53-.39.48-.83.91-1.25,1.35Z" transform="translate(0 -18.73)"/><path d="M590.24,636.26l-.55,1.17-.39-.18c.18-.42.37-.83.55-1.25Z" transform="translate(0 -18.73)"/><path d="M426.26,215.16l-2.2-.66.16-.51,2.21.62Z" transform="translate(0 -18.73)"/><path d="M446.2,169.5l1.47.59-.19.45-1.45-.66Z" transform="translate(0 -18.73)"/></svg>